<mxfile host="65bd71144e">
    <diagram name="ページ1" id="KGAW5IKwB1PtyniCg7fF">
        <mxGraphModel dx="1149" dy="673" grid="1" gridSize="10" guides="1" tooltips="1" connect="1" arrows="1" fold="1" page="1" pageScale="1" pageWidth="827" pageHeight="1169" background="#FFFFFF" math="0" shadow="0">
            <root>
                <mxCell id="0"/>
                <mxCell id="1" parent="0"/>
                <mxCell id="EHqpeQSWTMFwKQJ2zAnR-273" value="" style="endArrow=none;html=1;rounded=0;fillColor=#dae8fc;strokeColor=#6c8ebf;strokeWidth=4;startArrow=none;startFill=0;endFill=0;" parent="1" edge="1">
                    <mxGeometry width="50" height="50" relative="1" as="geometry">
                        <mxPoint x="500" y="920" as="sourcePoint"/>
                        <mxPoint x="400" y="700" as="targetPoint"/>
                        <Array as="points">
                            <mxPoint x="500" y="700"/>
                        </Array>
                    </mxGeometry>
                </mxCell>
                <mxCell id="EHqpeQSWTMFwKQJ2zAnR-275" value="" style="endArrow=none;html=1;rounded=0;fillColor=#dae8fc;strokeColor=#6c8ebf;strokeWidth=4;startArrow=none;startFill=0;endFill=0;" parent="1" edge="1">
                    <mxGeometry width="50" height="50" relative="1" as="geometry">
                        <mxPoint x="510" y="920" as="sourcePoint"/>
                        <mxPoint x="400" y="680" as="targetPoint"/>
                        <Array as="points">
                            <mxPoint x="510" y="680"/>
                        </Array>
                    </mxGeometry>
                </mxCell>
                <mxCell id="EHqpeQSWTMFwKQJ2zAnR-271" value="" style="endArrow=none;html=1;rounded=0;fillColor=#dae8fc;strokeColor=#6c8ebf;strokeWidth=4;startArrow=none;startFill=0;endFill=0;" parent="1" edge="1">
                    <mxGeometry width="50" height="50" relative="1" as="geometry">
                        <mxPoint x="400" y="720" as="sourcePoint"/>
                        <mxPoint x="490" y="920" as="targetPoint"/>
                        <Array as="points">
                            <mxPoint x="490" y="720"/>
                        </Array>
                    </mxGeometry>
                </mxCell>
                <mxCell id="EHqpeQSWTMFwKQJ2zAnR-4" value="" style="endArrow=block;html=1;rounded=0;fillColor=#d5e8d4;strokeColor=#82b366;strokeWidth=4;endFill=1;targetPerimeterSpacing=0;shadow=0;" parent="1" edge="1">
                    <mxGeometry width="50" height="50" relative="1" as="geometry">
                        <mxPoint x="80" y="460" as="sourcePoint"/>
                        <mxPoint x="320" y="460" as="targetPoint"/>
                    </mxGeometry>
                </mxCell>
                <mxCell id="EHqpeQSWTMFwKQJ2zAnR-6" value="DC12V" style="edgeLabel;align=center;verticalAlign=middle;resizable=0;points=[];labelBorderColor=none;html=1;" parent="EHqpeQSWTMFwKQJ2zAnR-4" vertex="1" connectable="0">
                    <mxGeometry x="0.4286" y="2" relative="1" as="geometry">
                        <mxPoint x="-51" y="2" as="offset"/>
                    </mxGeometry>
                </mxCell>
                <mxCell id="EHqpeQSWTMFwKQJ2zAnR-10" value="" style="endArrow=none;html=1;rounded=0;fillColor=#d5e8d4;strokeColor=#82b366;strokeWidth=4;startArrow=block;startFill=1;" parent="1" edge="1">
                    <mxGeometry width="50" height="50" relative="1" as="geometry">
                        <mxPoint x="1140" y="500" as="sourcePoint"/>
                        <mxPoint x="1260" y="500" as="targetPoint"/>
                    </mxGeometry>
                </mxCell>
                <mxCell id="EHqpeQSWTMFwKQJ2zAnR-11" value="DC12V" style="edgeLabel;align=center;verticalAlign=middle;resizable=0;points=[];labelBorderColor=none;html=1;" parent="EHqpeQSWTMFwKQJ2zAnR-10" vertex="1" connectable="0">
                    <mxGeometry x="0.4286" y="2" relative="1" as="geometry">
                        <mxPoint x="-26" y="2" as="offset"/>
                    </mxGeometry>
                </mxCell>
                <mxCell id="EHqpeQSWTMFwKQJ2zAnR-8" value="" style="endArrow=block;html=1;rounded=0;fillColor=#d5e8d4;strokeColor=#82b366;strokeWidth=4;startArrow=none;startFill=0;endFill=1;" parent="1" edge="1">
                    <mxGeometry width="50" height="50" relative="1" as="geometry">
                        <mxPoint x="1140" y="459.65999999999997" as="sourcePoint"/>
                        <mxPoint x="1260" y="460" as="targetPoint"/>
                    </mxGeometry>
                </mxCell>
                <mxCell id="EHqpeQSWTMFwKQJ2zAnR-9" value="DC18V" style="edgeLabel;align=center;verticalAlign=middle;resizable=0;points=[];labelBorderColor=none;html=1;" parent="EHqpeQSWTMFwKQJ2zAnR-8" vertex="1" connectable="0">
                    <mxGeometry x="0.4286" y="2" relative="1" as="geometry">
                        <mxPoint x="-26" y="2" as="offset"/>
                    </mxGeometry>
                </mxCell>
                <mxCell id="EHqpeQSWTMFwKQJ2zAnR-3" value="電源入力&lt;br&gt;2.1mm DCジャック" style="rounded=0;whiteSpace=wrap;html=1;" parent="1" vertex="1">
                    <mxGeometry x="-100" y="440" width="180" height="40" as="geometry"/>
                </mxCell>
                <mxCell id="EHqpeQSWTMFwKQJ2zAnR-7" value="&lt;strike&gt;&lt;font color=&quot;#b3b3b3&quot;&gt;DC/DCコンバータ&lt;br&gt;18V/12V&lt;/font&gt;&lt;/strike&gt;" style="rounded=0;whiteSpace=wrap;html=1;strokeColor=#B3B3B3;" parent="1" vertex="1">
                    <mxGeometry x="1260" y="440" width="120" height="80" as="geometry"/>
                </mxCell>
                <mxCell id="EHqpeQSWTMFwKQJ2zAnR-28" value="内部スピーカー" style="rounded=0;whiteSpace=wrap;html=1;" parent="1" vertex="1">
                    <mxGeometry x="1260" y="540" width="120" height="40" as="geometry"/>
                </mxCell>
                <mxCell id="EHqpeQSWTMFwKQJ2zAnR-29" value="" style="endArrow=block;html=1;rounded=0;fillColor=#f8cecc;strokeColor=#b85450;strokeWidth=4;startArrow=none;startFill=0;endFill=1;" parent="1" edge="1">
                    <mxGeometry width="50" height="50" relative="1" as="geometry">
                        <mxPoint x="1140" y="559.43" as="sourcePoint"/>
                        <mxPoint x="1260" y="559.43" as="targetPoint"/>
                    </mxGeometry>
                </mxCell>
                <mxCell id="EHqpeQSWTMFwKQJ2zAnR-35" value="音声" style="edgeLabel;html=1;align=center;verticalAlign=middle;resizable=0;points=[];" parent="EHqpeQSWTMFwKQJ2zAnR-29" vertex="1" connectable="0">
                    <mxGeometry x="-0.2937" relative="1" as="geometry">
                        <mxPoint x="18" y="1" as="offset"/>
                    </mxGeometry>
                </mxCell>
                <mxCell id="EHqpeQSWTMFwKQJ2zAnR-30" value="&lt;div style=&quot;&quot;&gt;&lt;span style=&quot;background-color: initial;&quot;&gt;&lt;font style=&quot;font-size: 32px;&quot;&gt;ランチコントローラ　データフロー図&lt;/font&gt;&lt;/span&gt;&lt;/div&gt;&lt;br&gt;※ 概念図なので実際の配線は異なる" style="text;html=1;strokeColor=none;fillColor=none;align=left;verticalAlign=middle;whiteSpace=wrap;rounded=0;" parent="1" vertex="1">
                    <mxGeometry x="-79.3" y="160" width="670" height="80" as="geometry"/>
                </mxCell>
                <mxCell id="EHqpeQSWTMFwKQJ2zAnR-31" value="音声出力&lt;br&gt;3.5mm ステレオミニジャック" style="rounded=0;whiteSpace=wrap;html=1;" parent="1" vertex="1">
                    <mxGeometry x="-100" y="540" width="180" height="40" as="geometry"/>
                </mxCell>
                <mxCell id="EHqpeQSWTMFwKQJ2zAnR-32" value="" style="endArrow=block;html=1;rounded=0;fillColor=#f8cecc;strokeColor=#b85450;strokeWidth=4;startArrow=none;startFill=0;endFill=1;" parent="1" edge="1">
                    <mxGeometry width="50" height="50" relative="1" as="geometry">
                        <mxPoint x="320" y="559.71" as="sourcePoint"/>
                        <mxPoint x="80" y="559.71" as="targetPoint"/>
                    </mxGeometry>
                </mxCell>
                <mxCell id="EHqpeQSWTMFwKQJ2zAnR-34" value="音声" style="edgeLabel;html=1;align=center;verticalAlign=middle;resizable=0;points=[];" parent="EHqpeQSWTMFwKQJ2zAnR-32" vertex="1" connectable="0">
                    <mxGeometry x="-0.3333" y="2" relative="1" as="geometry">
                        <mxPoint x="-40" y="-2" as="offset"/>
                    </mxGeometry>
                </mxCell>
                <mxCell id="EHqpeQSWTMFwKQJ2zAnR-36" value="ランサテ通信&lt;br&gt;RJ-45 モジュラージャック" style="rounded=0;whiteSpace=wrap;html=1;" parent="1" vertex="1">
                    <mxGeometry x="-100" y="600" width="180" height="40" as="geometry"/>
                </mxCell>
                <mxCell id="EHqpeQSWTMFwKQJ2zAnR-37" value="" style="endArrow=block;html=1;rounded=0;fillColor=#ffe6cc;strokeColor=#d79b00;strokeWidth=4;startArrow=block;startFill=1;endFill=1;" parent="1" edge="1">
                    <mxGeometry width="50" height="50" relative="1" as="geometry">
                        <mxPoint x="320" y="619.58" as="sourcePoint"/>
                        <mxPoint x="80" y="619.58" as="targetPoint"/>
                    </mxGeometry>
                </mxCell>
                <mxCell id="EHqpeQSWTMFwKQJ2zAnR-38" value="RS485" style="edgeLabel;html=1;align=center;verticalAlign=middle;resizable=0;points=[];" parent="EHqpeQSWTMFwKQJ2zAnR-37" vertex="1" connectable="0">
                    <mxGeometry x="-0.3333" y="2" relative="1" as="geometry">
                        <mxPoint x="-40" y="-2" as="offset"/>
                    </mxGeometry>
                </mxCell>
                <mxCell id="EHqpeQSWTMFwKQJ2zAnR-44" value="PC通信&lt;br&gt;USB Type-B レセプタクル" style="rounded=0;whiteSpace=wrap;html=1;" parent="1" vertex="1">
                    <mxGeometry x="-99.65" y="860" width="180" height="40" as="geometry"/>
                </mxCell>
                <mxCell id="EHqpeQSWTMFwKQJ2zAnR-46" value="" style="endArrow=block;html=1;rounded=0;fillColor=#ffe6cc;strokeColor=#d79b00;strokeWidth=4;startArrow=block;startFill=1;endFill=1;" parent="1" edge="1">
                    <mxGeometry width="50" height="50" relative="1" as="geometry">
                        <mxPoint x="320.35" y="879.58" as="sourcePoint"/>
                        <mxPoint x="80.35" y="879.58" as="targetPoint"/>
                    </mxGeometry>
                </mxCell>
                <mxCell id="EHqpeQSWTMFwKQJ2zAnR-47" value="USB 2.0" style="edgeLabel;html=1;align=center;verticalAlign=middle;resizable=0;points=[];" parent="EHqpeQSWTMFwKQJ2zAnR-46" vertex="1" connectable="0">
                    <mxGeometry x="-0.3333" y="2" relative="1" as="geometry">
                        <mxPoint x="-40" y="-2" as="offset"/>
                    </mxGeometry>
                </mxCell>
                <mxCell id="EHqpeQSWTMFwKQJ2zAnR-50" value="側面パネル" style="text;html=1;strokeColor=none;fillColor=none;align=right;verticalAlign=middle;whiteSpace=wrap;rounded=0;fontSize=24;" parent="1" vertex="1">
                    <mxGeometry x="-160" y="390" width="220" height="30" as="geometry"/>
                </mxCell>
                <mxCell id="EHqpeQSWTMFwKQJ2zAnR-51" value="ステータスパネル" style="text;html=1;strokeColor=none;fillColor=none;align=right;verticalAlign=middle;whiteSpace=wrap;rounded=0;fontSize=24;" parent="1" vertex="1">
                    <mxGeometry x="-159.65" y="810" width="220" height="30" as="geometry"/>
                </mxCell>
                <mxCell id="EHqpeQSWTMFwKQJ2zAnR-52" value="RESET SW" style="rounded=0;whiteSpace=wrap;html=1;" parent="1" vertex="1">
                    <mxGeometry x="-39.65" y="920" width="120" height="20" as="geometry"/>
                </mxCell>
                <mxCell id="EHqpeQSWTMFwKQJ2zAnR-53" value="" style="endArrow=none;html=1;rounded=0;fillColor=#dae8fc;strokeColor=#6c8ebf;strokeWidth=4;startArrow=block;startFill=1;endFill=0;" parent="1" edge="1">
                    <mxGeometry width="50" height="50" relative="1" as="geometry">
                        <mxPoint x="320.35" y="929.5799999999999" as="sourcePoint"/>
                        <mxPoint x="80.35" y="929.5799999999999" as="targetPoint"/>
                    </mxGeometry>
                </mxCell>
                <mxCell id="EHqpeQSWTMFwKQJ2zAnR-55" value="BATT LED" style="rounded=0;whiteSpace=wrap;html=1;" parent="1" vertex="1">
                    <mxGeometry x="-39.65" y="950" width="120" height="20" as="geometry"/>
                </mxCell>
                <mxCell id="EHqpeQSWTMFwKQJ2zAnR-58" value="" style="endArrow=block;html=1;rounded=0;fillColor=#dae8fc;strokeColor=#6c8ebf;strokeWidth=4;startArrow=none;startFill=0;endFill=1;" parent="1" edge="1">
                    <mxGeometry width="50" height="50" relative="1" as="geometry">
                        <mxPoint x="320.35" y="959.5799999999999" as="sourcePoint"/>
                        <mxPoint x="80.35" y="959.5799999999999" as="targetPoint"/>
                    </mxGeometry>
                </mxCell>
                <mxCell id="EHqpeQSWTMFwKQJ2zAnR-59" value="12V LED" style="rounded=0;whiteSpace=wrap;html=1;" parent="1" vertex="1">
                    <mxGeometry x="-39.65" y="980" width="120" height="20" as="geometry"/>
                </mxCell>
                <mxCell id="EHqpeQSWTMFwKQJ2zAnR-61" value="" style="endArrow=block;html=1;rounded=0;fillColor=#dae8fc;strokeColor=#6C8EBF;strokeWidth=4;startArrow=none;startFill=0;endFill=1;" parent="1" edge="1">
                    <mxGeometry width="50" height="50" relative="1" as="geometry">
                        <mxPoint x="320.35" y="989.5799999999999" as="sourcePoint"/>
                        <mxPoint x="80.35" y="989.5799999999999" as="targetPoint"/>
                    </mxGeometry>
                </mxCell>
                <mxCell id="EHqpeQSWTMFwKQJ2zAnR-64" value="5V LED" style="rounded=0;whiteSpace=wrap;html=1;" parent="1" vertex="1">
                    <mxGeometry x="-39.65" y="1010" width="120" height="20" as="geometry"/>
                </mxCell>
                <mxCell id="EHqpeQSWTMFwKQJ2zAnR-65" value="" style="endArrow=block;html=1;rounded=0;fillColor=#dae8fc;strokeColor=#6c8ebf;strokeWidth=4;startArrow=none;startFill=0;endFill=1;" parent="1" edge="1">
                    <mxGeometry width="50" height="50" relative="1" as="geometry">
                        <mxPoint x="320.35" y="1019.5799999999999" as="sourcePoint"/>
                        <mxPoint x="80.35" y="1019.5799999999999" as="targetPoint"/>
                    </mxGeometry>
                </mxCell>
                <mxCell id="EHqpeQSWTMFwKQJ2zAnR-67" value="LOW LED" style="rounded=0;whiteSpace=wrap;html=1;" parent="1" vertex="1">
                    <mxGeometry x="-39.65" y="1040" width="120" height="20" as="geometry"/>
                </mxCell>
                <mxCell id="EHqpeQSWTMFwKQJ2zAnR-68" value="" style="endArrow=block;html=1;rounded=0;fillColor=#dae8fc;strokeColor=#6c8ebf;strokeWidth=4;startArrow=none;startFill=0;endFill=1;" parent="1" edge="1">
                    <mxGeometry width="50" height="50" relative="1" as="geometry">
                        <mxPoint x="320.35" y="1049.58" as="sourcePoint"/>
                        <mxPoint x="80.35" y="1049.58" as="targetPoint"/>
                    </mxGeometry>
                </mxCell>
                <mxCell id="EHqpeQSWTMFwKQJ2zAnR-70" value="TASK LED" style="rounded=0;whiteSpace=wrap;html=1;" parent="1" vertex="1">
                    <mxGeometry x="-39.65" y="1070" width="120" height="20" as="geometry"/>
                </mxCell>
                <mxCell id="EHqpeQSWTMFwKQJ2zAnR-71" value="" style="endArrow=block;html=1;rounded=0;fillColor=#dae8fc;strokeColor=#6c8ebf;strokeWidth=4;startArrow=none;startFill=0;endFill=1;" parent="1" edge="1">
                    <mxGeometry width="50" height="50" relative="1" as="geometry">
                        <mxPoint x="320.35" y="1079.58" as="sourcePoint"/>
                        <mxPoint x="80.35" y="1079.58" as="targetPoint"/>
                    </mxGeometry>
                </mxCell>
                <mxCell id="EHqpeQSWTMFwKQJ2zAnR-72" value="COM LED" style="rounded=0;whiteSpace=wrap;html=1;" parent="1" vertex="1">
                    <mxGeometry x="-39.65" y="1100" width="120" height="20" as="geometry"/>
                </mxCell>
                <mxCell id="EHqpeQSWTMFwKQJ2zAnR-73" value="" style="endArrow=block;html=1;rounded=0;fillColor=#dae8fc;strokeColor=#6c8ebf;strokeWidth=4;startArrow=none;startFill=0;endFill=1;" parent="1" edge="1">
                    <mxGeometry width="50" height="50" relative="1" as="geometry">
                        <mxPoint x="320.35" y="1109.58" as="sourcePoint"/>
                        <mxPoint x="80.35" y="1109.58" as="targetPoint"/>
                    </mxGeometry>
                </mxCell>
                <mxCell id="EHqpeQSWTMFwKQJ2zAnR-74" value="ERR LED" style="rounded=0;whiteSpace=wrap;html=1;" parent="1" vertex="1">
                    <mxGeometry x="-39.65" y="1130" width="120" height="20" as="geometry"/>
                </mxCell>
                <mxCell id="EHqpeQSWTMFwKQJ2zAnR-75" value="" style="endArrow=block;html=1;rounded=0;fillColor=#dae8fc;strokeColor=#6c8ebf;strokeWidth=4;startArrow=none;startFill=0;endFill=1;" parent="1" edge="1">
                    <mxGeometry width="50" height="50" relative="1" as="geometry">
                        <mxPoint x="320.35" y="1139.58" as="sourcePoint"/>
                        <mxPoint x="80.35" y="1139.58" as="targetPoint"/>
                    </mxGeometry>
                </mxCell>
                <mxCell id="EHqpeQSWTMFwKQJ2zAnR-76" value="USB LED" style="rounded=0;whiteSpace=wrap;html=1;" parent="1" vertex="1">
                    <mxGeometry x="-39.65" y="1160" width="120" height="20" as="geometry"/>
                </mxCell>
                <mxCell id="EHqpeQSWTMFwKQJ2zAnR-77" value="" style="endArrow=block;html=1;rounded=0;fillColor=#dae8fc;strokeColor=#6c8ebf;strokeWidth=4;startArrow=none;startFill=0;endFill=1;" parent="1" edge="1">
                    <mxGeometry width="50" height="50" relative="1" as="geometry">
                        <mxPoint x="320.35" y="1169.58" as="sourcePoint"/>
                        <mxPoint x="80.35" y="1169.58" as="targetPoint"/>
                    </mxGeometry>
                </mxCell>
                <mxCell id="EHqpeQSWTMFwKQJ2zAnR-78" value="RS485 LED" style="rounded=0;whiteSpace=wrap;html=1;" parent="1" vertex="1">
                    <mxGeometry x="-39.65" y="1190" width="120" height="20" as="geometry"/>
                </mxCell>
                <mxCell id="EHqpeQSWTMFwKQJ2zAnR-79" value="" style="endArrow=block;html=1;rounded=0;fillColor=#dae8fc;strokeColor=#6c8ebf;strokeWidth=4;startArrow=none;startFill=0;endFill=1;" parent="1" edge="1">
                    <mxGeometry width="50" height="50" relative="1" as="geometry">
                        <mxPoint x="320.35" y="1199.58" as="sourcePoint"/>
                        <mxPoint x="80.35" y="1199.58" as="targetPoint"/>
                    </mxGeometry>
                </mxCell>
                <mxCell id="EHqpeQSWTMFwKQJ2zAnR-80" value="N2O圧力表示&lt;br&gt;4桁7セグメントディスプレイ" style="rounded=0;whiteSpace=wrap;html=1;" parent="1" vertex="1">
                    <mxGeometry x="-99.30000000000001" y="1230" width="180" height="40" as="geometry"/>
                </mxCell>
                <mxCell id="EHqpeQSWTMFwKQJ2zAnR-81" value="制御IC" style="rounded=0;whiteSpace=wrap;html=1;" parent="1" vertex="1">
                    <mxGeometry x="79.64999999999998" y="1230" width="90" height="40" as="geometry"/>
                </mxCell>
                <mxCell id="EHqpeQSWTMFwKQJ2zAnR-82" value="" style="endArrow=block;html=1;rounded=0;fillColor=#ffe6cc;strokeColor=#d79b00;strokeWidth=4;startArrow=none;startFill=0;endFill=1;" parent="1" edge="1">
                    <mxGeometry width="50" height="50" relative="1" as="geometry">
                        <mxPoint x="320" y="1250.21" as="sourcePoint"/>
                        <mxPoint x="170" y="1249.7800000000002" as="targetPoint"/>
                    </mxGeometry>
                </mxCell>
                <mxCell id="EHqpeQSWTMFwKQJ2zAnR-83" value="I2C" style="edgeLabel;html=1;align=center;verticalAlign=middle;resizable=0;points=[];" parent="EHqpeQSWTMFwKQJ2zAnR-82" vertex="1" connectable="0">
                    <mxGeometry x="-0.3333" y="2" relative="1" as="geometry">
                        <mxPoint x="-30" y="-2" as="offset"/>
                    </mxGeometry>
                </mxCell>
                <mxCell id="EHqpeQSWTMFwKQJ2zAnR-87" value="メインパネル（入）" style="text;html=1;strokeColor=none;fillColor=none;align=right;verticalAlign=middle;whiteSpace=wrap;rounded=0;fontSize=24;" parent="1" vertex="1">
                    <mxGeometry x="-160.70000000000002" y="1340" width="220" height="30" as="geometry"/>
                </mxCell>
                <mxCell id="EHqpeQSWTMFwKQJ2zAnR-88" value="" style="rounded=0;whiteSpace=wrap;html=1;fillColor=#6C8EBF;strokeColor=none;" parent="1" vertex="1">
                    <mxGeometry x="190.35" y="920" width="20" height="290" as="geometry"/>
                </mxCell>
                <mxCell id="EHqpeQSWTMFwKQJ2zAnR-91" value="RUN SW" style="rounded=0;whiteSpace=wrap;html=1;" parent="1" vertex="1">
                    <mxGeometry x="-40" y="1390" width="120" height="20" as="geometry"/>
                </mxCell>
                <mxCell id="EHqpeQSWTMFwKQJ2zAnR-92" value="KILL SW" style="rounded=0;whiteSpace=wrap;html=1;" parent="1" vertex="1">
                    <mxGeometry x="-40" y="1420" width="120" height="20" as="geometry"/>
                </mxCell>
                <mxCell id="EHqpeQSWTMFwKQJ2zAnR-93" value="SAFETY SW" style="rounded=0;whiteSpace=wrap;html=1;" parent="1" vertex="1">
                    <mxGeometry x="-40" y="1450" width="120" height="20" as="geometry"/>
                </mxCell>
                <mxCell id="EHqpeQSWTMFwKQJ2zAnR-94" value="EMERGENCY TOP SW" style="rounded=0;whiteSpace=wrap;html=1;" parent="1" vertex="1">
                    <mxGeometry x="-80.7" y="1480" width="160" height="20" as="geometry"/>
                </mxCell>
                <mxCell id="EHqpeQSWTMFwKQJ2zAnR-95" value="SEQUENCE START SW" style="rounded=0;whiteSpace=wrap;html=1;" parent="1" vertex="1">
                    <mxGeometry x="-80.00000000000001" y="1510" width="160" height="20" as="geometry"/>
                </mxCell>
                <mxCell id="EHqpeQSWTMFwKQJ2zAnR-97" value="充填確認スイッチ&lt;br&gt;4P なんか" style="rounded=0;whiteSpace=wrap;html=1;" parent="1" vertex="1">
                    <mxGeometry x="-100" y="660" width="180" height="80" as="geometry"/>
                </mxCell>
                <mxCell id="EHqpeQSWTMFwKQJ2zAnR-98" value="" style="endArrow=none;html=1;rounded=0;fillColor=#dae8fc;strokeColor=#6c8ebf;strokeWidth=4;startArrow=block;startFill=1;endFill=0;" parent="1" edge="1">
                    <mxGeometry width="50" height="50" relative="1" as="geometry">
                        <mxPoint x="320" y="680" as="sourcePoint"/>
                        <mxPoint x="80" y="680" as="targetPoint"/>
                    </mxGeometry>
                </mxCell>
                <mxCell id="EHqpeQSWTMFwKQJ2zAnR-99" value="" style="endArrow=none;html=1;rounded=0;fillColor=#dae8fc;strokeColor=#6c8ebf;strokeWidth=4;startArrow=block;startFill=1;endFill=0;" parent="1" edge="1">
                    <mxGeometry width="50" height="50" relative="1" as="geometry">
                        <mxPoint x="320" y="699.63" as="sourcePoint"/>
                        <mxPoint x="80" y="699.63" as="targetPoint"/>
                    </mxGeometry>
                </mxCell>
                <mxCell id="EHqpeQSWTMFwKQJ2zAnR-100" value="" style="endArrow=none;html=1;rounded=0;fillColor=#dae8fc;strokeColor=#6c8ebf;strokeWidth=4;startArrow=block;startFill=1;endFill=0;" parent="1" edge="1">
                    <mxGeometry width="50" height="50" relative="1" as="geometry">
                        <mxPoint x="320" y="720" as="sourcePoint"/>
                        <mxPoint x="80" y="720" as="targetPoint"/>
                    </mxGeometry>
                </mxCell>
                <mxCell id="EHqpeQSWTMFwKQJ2zAnR-2" value="" style="endArrow=none;html=1;rounded=0;strokeWidth=4;" parent="1" edge="1">
                    <mxGeometry width="50" height="50" relative="1" as="geometry">
                        <mxPoint x="80" y="780" as="sourcePoint"/>
                        <mxPoint x="80" y="400" as="targetPoint"/>
                    </mxGeometry>
                </mxCell>
                <mxCell id="EHqpeQSWTMFwKQJ2zAnR-101" value="" style="rounded=0;whiteSpace=wrap;html=1;fillColor=#6C8EBF;strokeColor=none;" parent="1" vertex="1">
                    <mxGeometry x="190.35" y="670" width="20" height="60" as="geometry"/>
                </mxCell>
                <mxCell id="EHqpeQSWTMFwKQJ2zAnR-103" value="&lt;strike&gt;SHIFT SW&lt;/strike&gt;" style="rounded=0;whiteSpace=wrap;html=1;fontColor=#B3B3B3;strokeColor=#B3B3B3;" parent="1" vertex="1">
                    <mxGeometry x="-40" y="1540" width="120" height="20" as="geometry"/>
                </mxCell>
                <mxCell id="EHqpeQSWTMFwKQJ2zAnR-104" value="FILL SW" style="rounded=0;whiteSpace=wrap;html=1;" parent="1" vertex="1">
                    <mxGeometry x="-40.35" y="1570" width="120" height="20" as="geometry"/>
                </mxCell>
                <mxCell id="EHqpeQSWTMFwKQJ2zAnR-105" value="DUMP SW" style="rounded=0;whiteSpace=wrap;html=1;" parent="1" vertex="1">
                    <mxGeometry x="-40.35" y="1600" width="120" height="20" as="geometry"/>
                </mxCell>
                <mxCell id="EHqpeQSWTMFwKQJ2zAnR-106" value="O2 SW" style="rounded=0;whiteSpace=wrap;html=1;" parent="1" vertex="1">
                    <mxGeometry x="-40" y="1630" width="120" height="20" as="geometry"/>
                </mxCell>
                <mxCell id="EHqpeQSWTMFwKQJ2zAnR-107" value="IGN SW" style="rounded=0;whiteSpace=wrap;html=1;" parent="1" vertex="1">
                    <mxGeometry x="-40.35" y="1660" width="120" height="20" as="geometry"/>
                </mxCell>
                <mxCell id="EHqpeQSWTMFwKQJ2zAnR-108" value="OPEN SW" style="rounded=0;whiteSpace=wrap;html=1;" parent="1" vertex="1">
                    <mxGeometry x="-40.35" y="1690" width="120" height="20" as="geometry"/>
                </mxCell>
                <mxCell id="EHqpeQSWTMFwKQJ2zAnR-109" value="CLOSE SW" style="rounded=0;whiteSpace=wrap;html=1;" parent="1" vertex="1">
                    <mxGeometry x="-40.35" y="1720" width="120" height="20" as="geometry"/>
                </mxCell>
                <mxCell id="EHqpeQSWTMFwKQJ2zAnR-110" value="PURGE SW" style="rounded=0;whiteSpace=wrap;html=1;" parent="1" vertex="1">
                    <mxGeometry x="-40.35" y="1750" width="120" height="20" as="geometry"/>
                </mxCell>
                <mxCell id="EHqpeQSWTMFwKQJ2zAnR-111" value="" style="endArrow=none;html=1;rounded=0;fillColor=#dae8fc;strokeColor=#6c8ebf;strokeWidth=4;startArrow=block;startFill=1;endFill=0;" parent="1" edge="1">
                    <mxGeometry width="50" height="50" relative="1" as="geometry">
                        <mxPoint x="320" y="1399.52" as="sourcePoint"/>
                        <mxPoint x="80" y="1399.52" as="targetPoint"/>
                    </mxGeometry>
                </mxCell>
                <mxCell id="EHqpeQSWTMFwKQJ2zAnR-112" value="" style="endArrow=none;html=1;rounded=0;fillColor=#dae8fc;strokeColor=#6c8ebf;strokeWidth=4;startArrow=block;startFill=1;endFill=0;" parent="1" edge="1">
                    <mxGeometry width="50" height="50" relative="1" as="geometry">
                        <mxPoint x="319.65" y="1429.52" as="sourcePoint"/>
                        <mxPoint x="79.65" y="1429.52" as="targetPoint"/>
                    </mxGeometry>
                </mxCell>
                <mxCell id="EHqpeQSWTMFwKQJ2zAnR-113" value="" style="endArrow=none;html=1;rounded=0;fillColor=#dae8fc;strokeColor=#6c8ebf;strokeWidth=4;startArrow=block;startFill=1;endFill=0;" parent="1" edge="1">
                    <mxGeometry width="50" height="50" relative="1" as="geometry">
                        <mxPoint x="320" y="1459.52" as="sourcePoint"/>
                        <mxPoint x="80" y="1459.52" as="targetPoint"/>
                    </mxGeometry>
                </mxCell>
                <mxCell id="EHqpeQSWTMFwKQJ2zAnR-114" value="" style="endArrow=none;html=1;rounded=0;fillColor=#dae8fc;strokeColor=#6c8ebf;strokeWidth=4;startArrow=block;startFill=1;endFill=0;" parent="1" edge="1">
                    <mxGeometry width="50" height="50" relative="1" as="geometry">
                        <mxPoint x="320" y="1489.52" as="sourcePoint"/>
                        <mxPoint x="80" y="1489.52" as="targetPoint"/>
                    </mxGeometry>
                </mxCell>
                <mxCell id="EHqpeQSWTMFwKQJ2zAnR-115" value="" style="endArrow=none;html=1;rounded=0;fillColor=#dae8fc;strokeColor=#6c8ebf;strokeWidth=4;startArrow=block;startFill=1;endFill=0;" parent="1" edge="1">
                    <mxGeometry width="50" height="50" relative="1" as="geometry">
                        <mxPoint x="320" y="1519.52" as="sourcePoint"/>
                        <mxPoint x="80" y="1519.52" as="targetPoint"/>
                    </mxGeometry>
                </mxCell>
                <mxCell id="EHqpeQSWTMFwKQJ2zAnR-116" value="" style="endArrow=none;html=1;rounded=0;fillColor=#dae8fc;strokeColor=#6c8ebf;strokeWidth=4;startArrow=block;startFill=1;endFill=0;" parent="1" edge="1">
                    <mxGeometry width="50" height="50" relative="1" as="geometry">
                        <mxPoint x="320" y="1549.52" as="sourcePoint"/>
                        <mxPoint x="80" y="1549.52" as="targetPoint"/>
                    </mxGeometry>
                </mxCell>
                <mxCell id="EHqpeQSWTMFwKQJ2zAnR-117" value="" style="endArrow=none;html=1;rounded=0;fillColor=#dae8fc;strokeColor=#6c8ebf;strokeWidth=4;startArrow=block;startFill=1;endFill=0;" parent="1" edge="1">
                    <mxGeometry width="50" height="50" relative="1" as="geometry">
                        <mxPoint x="320" y="1579.52" as="sourcePoint"/>
                        <mxPoint x="80" y="1579.52" as="targetPoint"/>
                    </mxGeometry>
                </mxCell>
                <mxCell id="EHqpeQSWTMFwKQJ2zAnR-118" value="" style="endArrow=none;html=1;rounded=0;fillColor=#dae8fc;strokeColor=#6c8ebf;strokeWidth=4;startArrow=block;startFill=1;endFill=0;" parent="1" edge="1">
                    <mxGeometry width="50" height="50" relative="1" as="geometry">
                        <mxPoint x="319.65" y="1609.52" as="sourcePoint"/>
                        <mxPoint x="79.65" y="1609.52" as="targetPoint"/>
                    </mxGeometry>
                </mxCell>
                <mxCell id="EHqpeQSWTMFwKQJ2zAnR-119" value="" style="endArrow=none;html=1;rounded=0;fillColor=#dae8fc;strokeColor=#6c8ebf;strokeWidth=4;startArrow=block;startFill=1;endFill=0;" parent="1" edge="1">
                    <mxGeometry width="50" height="50" relative="1" as="geometry">
                        <mxPoint x="319.65" y="1639.52" as="sourcePoint"/>
                        <mxPoint x="79.65" y="1639.52" as="targetPoint"/>
                    </mxGeometry>
                </mxCell>
                <mxCell id="EHqpeQSWTMFwKQJ2zAnR-120" value="" style="endArrow=none;html=1;rounded=0;fillColor=#dae8fc;strokeColor=#6c8ebf;strokeWidth=4;startArrow=block;startFill=1;endFill=0;" parent="1" edge="1">
                    <mxGeometry width="50" height="50" relative="1" as="geometry">
                        <mxPoint x="319.65" y="1669.52" as="sourcePoint"/>
                        <mxPoint x="79.65" y="1669.52" as="targetPoint"/>
                    </mxGeometry>
                </mxCell>
                <mxCell id="EHqpeQSWTMFwKQJ2zAnR-121" value="" style="endArrow=none;html=1;rounded=0;fillColor=#dae8fc;strokeColor=#6c8ebf;strokeWidth=4;startArrow=block;startFill=1;endFill=0;" parent="1" edge="1">
                    <mxGeometry width="50" height="50" relative="1" as="geometry">
                        <mxPoint x="320" y="1699.52" as="sourcePoint"/>
                        <mxPoint x="80" y="1699.52" as="targetPoint"/>
                    </mxGeometry>
                </mxCell>
                <mxCell id="EHqpeQSWTMFwKQJ2zAnR-122" value="" style="endArrow=none;html=1;rounded=0;fillColor=#dae8fc;strokeColor=#6c8ebf;strokeWidth=4;startArrow=block;startFill=1;endFill=0;" parent="1" edge="1">
                    <mxGeometry width="50" height="50" relative="1" as="geometry">
                        <mxPoint x="319.65" y="1729.52" as="sourcePoint"/>
                        <mxPoint x="79.65" y="1729.52" as="targetPoint"/>
                    </mxGeometry>
                </mxCell>
                <mxCell id="EHqpeQSWTMFwKQJ2zAnR-123" value="" style="endArrow=none;html=1;rounded=0;fillColor=#dae8fc;strokeColor=#6c8ebf;strokeWidth=4;startArrow=block;startFill=1;endFill=0;" parent="1" edge="1">
                    <mxGeometry width="50" height="50" relative="1" as="geometry">
                        <mxPoint x="320" y="1759.52" as="sourcePoint"/>
                        <mxPoint x="80" y="1759.52" as="targetPoint"/>
                    </mxGeometry>
                </mxCell>
                <mxCell id="EHqpeQSWTMFwKQJ2zAnR-124" value="" style="rounded=0;whiteSpace=wrap;html=1;fillColor=#6C8EBF;strokeColor=none;" parent="1" vertex="1">
                    <mxGeometry x="190" y="1390" width="20" height="380" as="geometry"/>
                </mxCell>
                <mxCell id="EHqpeQSWTMFwKQJ2zAnR-127" value="メインパネル（出）" style="text;html=1;strokeColor=none;fillColor=none;align=right;verticalAlign=middle;whiteSpace=wrap;rounded=0;fontSize=24;" parent="1" vertex="1">
                    <mxGeometry x="1400" y="1120" width="220" height="30" as="geometry"/>
                </mxCell>
                <mxCell id="EHqpeQSWTMFwKQJ2zAnR-128" value="POWER&amp;nbsp; LED" style="rounded=0;whiteSpace=wrap;html=1;" parent="1" vertex="1">
                    <mxGeometry x="1380" y="1180" width="120" height="20" as="geometry"/>
                </mxCell>
                <mxCell id="EHqpeQSWTMFwKQJ2zAnR-86" value="" style="endArrow=none;html=1;rounded=0;strokeWidth=4;" parent="1" edge="1">
                    <mxGeometry width="50" height="50" relative="1" as="geometry">
                        <mxPoint x="79.3" y="1810" as="sourcePoint"/>
                        <mxPoint x="79.3" y="1350" as="targetPoint"/>
                    </mxGeometry>
                </mxCell>
                <mxCell id="EHqpeQSWTMFwKQJ2zAnR-45" value="" style="endArrow=none;html=1;rounded=0;strokeWidth=4;" parent="1" edge="1">
                    <mxGeometry width="50" height="50" relative="1" as="geometry">
                        <mxPoint x="80" y="1310" as="sourcePoint"/>
                        <mxPoint x="80.35" y="820" as="targetPoint"/>
                    </mxGeometry>
                </mxCell>
                <mxCell id="EHqpeQSWTMFwKQJ2zAnR-129" value="SEFTY LED" style="rounded=0;whiteSpace=wrap;html=1;" parent="1" vertex="1">
                    <mxGeometry x="1380" y="1210" width="120" height="20" as="geometry"/>
                </mxCell>
                <mxCell id="EHqpeQSWTMFwKQJ2zAnR-130" value="SEQUENCE LED" style="rounded=0;whiteSpace=wrap;html=1;" parent="1" vertex="1">
                    <mxGeometry x="1380" y="1270" width="120" height="20" as="geometry"/>
                </mxCell>
                <mxCell id="EHqpeQSWTMFwKQJ2zAnR-131" value="EMERGENCY LED" style="rounded=0;whiteSpace=wrap;html=1;" parent="1" vertex="1">
                    <mxGeometry x="1380" y="1240" width="120" height="20" as="geometry"/>
                </mxCell>
                <mxCell id="EHqpeQSWTMFwKQJ2zAnR-132" value="SHIFT LED" style="rounded=0;whiteSpace=wrap;html=1;" parent="1" vertex="1">
                    <mxGeometry x="1380" y="1300" width="120" height="20" as="geometry"/>
                </mxCell>
                <mxCell id="EHqpeQSWTMFwKQJ2zAnR-133" value="FILL LED" style="rounded=0;whiteSpace=wrap;html=1;" parent="1" vertex="1">
                    <mxGeometry x="1380" y="1330" width="120" height="20" as="geometry"/>
                </mxCell>
                <mxCell id="EHqpeQSWTMFwKQJ2zAnR-134" value="DUMP LED" style="rounded=0;whiteSpace=wrap;html=1;" parent="1" vertex="1">
                    <mxGeometry x="1380" y="1360" width="120" height="20" as="geometry"/>
                </mxCell>
                <mxCell id="EHqpeQSWTMFwKQJ2zAnR-135" value="O2 LED" style="rounded=0;whiteSpace=wrap;html=1;" parent="1" vertex="1">
                    <mxGeometry x="1380" y="1390" width="120" height="20" as="geometry"/>
                </mxCell>
                <mxCell id="EHqpeQSWTMFwKQJ2zAnR-136" value="IGN LED" style="rounded=0;whiteSpace=wrap;html=1;" parent="1" vertex="1">
                    <mxGeometry x="1380" y="1420" width="120" height="20" as="geometry"/>
                </mxCell>
                <mxCell id="EHqpeQSWTMFwKQJ2zAnR-138" value="OPEN LED" style="rounded=0;whiteSpace=wrap;html=1;" parent="1" vertex="1">
                    <mxGeometry x="1380" y="1450" width="120" height="20" as="geometry"/>
                </mxCell>
                <mxCell id="EHqpeQSWTMFwKQJ2zAnR-139" value="CLOSE LED" style="rounded=0;whiteSpace=wrap;html=1;" parent="1" vertex="1">
                    <mxGeometry x="1380" y="1480" width="120" height="20" as="geometry"/>
                </mxCell>
                <mxCell id="EHqpeQSWTMFwKQJ2zAnR-140" value="PURGE LED" style="rounded=0;whiteSpace=wrap;html=1;" parent="1" vertex="1">
                    <mxGeometry x="1380" y="1510" width="120" height="20" as="geometry"/>
                </mxCell>
                <mxCell id="EHqpeQSWTMFwKQJ2zAnR-141" value="&lt;strike&gt;SHIFT FB LED&lt;/strike&gt;" style="rounded=0;whiteSpace=wrap;html=1;labelBorderColor=none;fontColor=#B3B3B3;strokeColor=#B3B3B3;" parent="1" vertex="1">
                    <mxGeometry x="1380" y="1540" width="120" height="20" as="geometry"/>
                </mxCell>
                <mxCell id="EHqpeQSWTMFwKQJ2zAnR-142" value="FILL FB LED" style="rounded=0;whiteSpace=wrap;html=1;" parent="1" vertex="1">
                    <mxGeometry x="1380" y="1570" width="120" height="20" as="geometry"/>
                </mxCell>
                <mxCell id="EHqpeQSWTMFwKQJ2zAnR-143" value="DUMP FB LED" style="rounded=0;whiteSpace=wrap;html=1;" parent="1" vertex="1">
                    <mxGeometry x="1380" y="1600" width="120" height="20" as="geometry"/>
                </mxCell>
                <mxCell id="EHqpeQSWTMFwKQJ2zAnR-144" value="O2 FB LED" style="rounded=0;whiteSpace=wrap;html=1;" parent="1" vertex="1">
                    <mxGeometry x="1380" y="1630" width="120" height="20" as="geometry"/>
                </mxCell>
                <mxCell id="EHqpeQSWTMFwKQJ2zAnR-145" value="IGN FB LED" style="rounded=0;whiteSpace=wrap;html=1;" parent="1" vertex="1">
                    <mxGeometry x="1380" y="1660" width="120" height="20" as="geometry"/>
                </mxCell>
                <mxCell id="EHqpeQSWTMFwKQJ2zAnR-146" value="OPEN FB LED" style="rounded=0;whiteSpace=wrap;html=1;" parent="1" vertex="1">
                    <mxGeometry x="1380" y="1690" width="120" height="20" as="geometry"/>
                </mxCell>
                <mxCell id="EHqpeQSWTMFwKQJ2zAnR-147" value="CLOSE FB LED" style="rounded=0;whiteSpace=wrap;html=1;" parent="1" vertex="1">
                    <mxGeometry x="1380" y="1720" width="120" height="20" as="geometry"/>
                </mxCell>
                <mxCell id="EHqpeQSWTMFwKQJ2zAnR-148" value="PURGE FB LED" style="rounded=0;whiteSpace=wrap;html=1;" parent="1" vertex="1">
                    <mxGeometry x="1380" y="1750" width="120" height="20" as="geometry"/>
                </mxCell>
                <mxCell id="EHqpeQSWTMFwKQJ2zAnR-149" value="" style="endArrow=none;html=1;rounded=0;fillColor=#dae8fc;strokeColor=#6c8ebf;strokeWidth=4;startArrow=block;startFill=1;endFill=0;" parent="1" edge="1">
                    <mxGeometry width="50" height="50" relative="1" as="geometry">
                        <mxPoint x="1380" y="1189.0900000000001" as="sourcePoint"/>
                        <mxPoint x="1140" y="1189.0900000000001" as="targetPoint"/>
                    </mxGeometry>
                </mxCell>
                <mxCell id="EHqpeQSWTMFwKQJ2zAnR-150" value="" style="endArrow=none;html=1;rounded=0;fillColor=#dae8fc;strokeColor=#6c8ebf;strokeWidth=4;startArrow=block;startFill=1;endFill=0;" parent="1" edge="1">
                    <mxGeometry width="50" height="50" relative="1" as="geometry">
                        <mxPoint x="1380" y="1219.7" as="sourcePoint"/>
                        <mxPoint x="1140" y="1219.7" as="targetPoint"/>
                    </mxGeometry>
                </mxCell>
                <mxCell id="EHqpeQSWTMFwKQJ2zAnR-151" value="" style="endArrow=none;html=1;rounded=0;fillColor=#dae8fc;strokeColor=#6c8ebf;strokeWidth=4;startArrow=block;startFill=1;endFill=0;" parent="1" edge="1">
                    <mxGeometry width="50" height="50" relative="1" as="geometry">
                        <mxPoint x="1380" y="1249.7" as="sourcePoint"/>
                        <mxPoint x="1140" y="1249.7" as="targetPoint"/>
                    </mxGeometry>
                </mxCell>
                <mxCell id="EHqpeQSWTMFwKQJ2zAnR-152" value="" style="endArrow=none;html=1;rounded=0;fillColor=#dae8fc;strokeColor=#6c8ebf;strokeWidth=4;startArrow=block;startFill=1;endFill=0;" parent="1" edge="1">
                    <mxGeometry width="50" height="50" relative="1" as="geometry">
                        <mxPoint x="1380" y="1279.7" as="sourcePoint"/>
                        <mxPoint x="1140" y="1279.7" as="targetPoint"/>
                    </mxGeometry>
                </mxCell>
                <mxCell id="EHqpeQSWTMFwKQJ2zAnR-153" value="" style="endArrow=none;html=1;rounded=0;fillColor=#dae8fc;strokeColor=#6c8ebf;strokeWidth=4;startArrow=block;startFill=1;endFill=0;" parent="1" edge="1">
                    <mxGeometry width="50" height="50" relative="1" as="geometry">
                        <mxPoint x="1380" y="1310" as="sourcePoint"/>
                        <mxPoint x="1140" y="1310" as="targetPoint"/>
                    </mxGeometry>
                </mxCell>
                <mxCell id="EHqpeQSWTMFwKQJ2zAnR-154" value="" style="endArrow=none;html=1;rounded=0;fillColor=#dae8fc;strokeColor=#6c8ebf;strokeWidth=4;startArrow=block;startFill=1;endFill=0;" parent="1" edge="1">
                    <mxGeometry width="50" height="50" relative="1" as="geometry">
                        <mxPoint x="1380" y="1340.6100000000001" as="sourcePoint"/>
                        <mxPoint x="1140" y="1340.6100000000001" as="targetPoint"/>
                    </mxGeometry>
                </mxCell>
                <mxCell id="EHqpeQSWTMFwKQJ2zAnR-155" value="" style="endArrow=none;html=1;rounded=0;fillColor=#dae8fc;strokeColor=#6c8ebf;strokeWidth=4;startArrow=block;startFill=1;endFill=0;" parent="1" edge="1">
                    <mxGeometry width="50" height="50" relative="1" as="geometry">
                        <mxPoint x="1380" y="1370.6100000000001" as="sourcePoint"/>
                        <mxPoint x="1140" y="1370.6100000000001" as="targetPoint"/>
                    </mxGeometry>
                </mxCell>
                <mxCell id="EHqpeQSWTMFwKQJ2zAnR-156" value="" style="endArrow=none;html=1;rounded=0;fillColor=#dae8fc;strokeColor=#6c8ebf;strokeWidth=4;startArrow=block;startFill=1;endFill=0;" parent="1" edge="1">
                    <mxGeometry width="50" height="50" relative="1" as="geometry">
                        <mxPoint x="1380" y="1400.6100000000001" as="sourcePoint"/>
                        <mxPoint x="1140" y="1400.6100000000001" as="targetPoint"/>
                    </mxGeometry>
                </mxCell>
                <mxCell id="EHqpeQSWTMFwKQJ2zAnR-157" value="" style="endArrow=none;html=1;rounded=0;fillColor=#dae8fc;strokeColor=#6c8ebf;strokeWidth=4;startArrow=block;startFill=1;endFill=0;" parent="1" edge="1">
                    <mxGeometry width="50" height="50" relative="1" as="geometry">
                        <mxPoint x="1380" y="1430" as="sourcePoint"/>
                        <mxPoint x="1140" y="1430" as="targetPoint"/>
                    </mxGeometry>
                </mxCell>
                <mxCell id="EHqpeQSWTMFwKQJ2zAnR-158" value="" style="endArrow=none;html=1;rounded=0;fillColor=#dae8fc;strokeColor=#6c8ebf;strokeWidth=4;startArrow=block;startFill=1;endFill=0;" parent="1" edge="1">
                    <mxGeometry width="50" height="50" relative="1" as="geometry">
                        <mxPoint x="1380" y="1460.6100000000001" as="sourcePoint"/>
                        <mxPoint x="1140" y="1460.6100000000001" as="targetPoint"/>
                    </mxGeometry>
                </mxCell>
                <mxCell id="EHqpeQSWTMFwKQJ2zAnR-159" value="" style="endArrow=none;html=1;rounded=0;fillColor=#dae8fc;strokeColor=#6c8ebf;strokeWidth=4;startArrow=block;startFill=1;endFill=0;" parent="1" edge="1">
                    <mxGeometry width="50" height="50" relative="1" as="geometry">
                        <mxPoint x="1380" y="1490.6100000000001" as="sourcePoint"/>
                        <mxPoint x="1140" y="1490.6100000000001" as="targetPoint"/>
                    </mxGeometry>
                </mxCell>
                <mxCell id="EHqpeQSWTMFwKQJ2zAnR-160" value="" style="endArrow=none;html=1;rounded=0;fillColor=#dae8fc;strokeColor=#6c8ebf;strokeWidth=4;startArrow=block;startFill=1;endFill=0;" parent="1" edge="1">
                    <mxGeometry width="50" height="50" relative="1" as="geometry">
                        <mxPoint x="1380" y="1520.6100000000001" as="sourcePoint"/>
                        <mxPoint x="1140" y="1520.6100000000001" as="targetPoint"/>
                    </mxGeometry>
                </mxCell>
                <mxCell id="EHqpeQSWTMFwKQJ2zAnR-161" value="" style="endArrow=none;html=1;rounded=0;fillColor=#dae8fc;strokeColor=#6c8ebf;strokeWidth=4;startArrow=block;startFill=1;endFill=0;" parent="1" edge="1">
                    <mxGeometry width="50" height="50" relative="1" as="geometry">
                        <mxPoint x="1380" y="1550" as="sourcePoint"/>
                        <mxPoint x="1140" y="1550" as="targetPoint"/>
                    </mxGeometry>
                </mxCell>
                <mxCell id="EHqpeQSWTMFwKQJ2zAnR-162" value="" style="endArrow=none;html=1;rounded=0;fillColor=#dae8fc;strokeColor=#6c8ebf;strokeWidth=4;startArrow=block;startFill=1;endFill=0;" parent="1" edge="1">
                    <mxGeometry width="50" height="50" relative="1" as="geometry">
                        <mxPoint x="1380" y="1580.6100000000001" as="sourcePoint"/>
                        <mxPoint x="1140" y="1580.6100000000001" as="targetPoint"/>
                    </mxGeometry>
                </mxCell>
                <mxCell id="EHqpeQSWTMFwKQJ2zAnR-163" value="" style="endArrow=none;html=1;rounded=0;fillColor=#dae8fc;strokeColor=#6c8ebf;strokeWidth=4;startArrow=block;startFill=1;endFill=0;" parent="1" edge="1">
                    <mxGeometry width="50" height="50" relative="1" as="geometry">
                        <mxPoint x="1380" y="1610.6100000000001" as="sourcePoint"/>
                        <mxPoint x="1140" y="1610.6100000000001" as="targetPoint"/>
                    </mxGeometry>
                </mxCell>
                <mxCell id="EHqpeQSWTMFwKQJ2zAnR-164" value="" style="endArrow=none;html=1;rounded=0;fillColor=#dae8fc;strokeColor=#6c8ebf;strokeWidth=4;startArrow=block;startFill=1;endFill=0;" parent="1" edge="1">
                    <mxGeometry width="50" height="50" relative="1" as="geometry">
                        <mxPoint x="1380" y="1639.83" as="sourcePoint"/>
                        <mxPoint x="1140" y="1639.83" as="targetPoint"/>
                    </mxGeometry>
                </mxCell>
                <mxCell id="EHqpeQSWTMFwKQJ2zAnR-165" value="" style="endArrow=none;html=1;rounded=0;fillColor=#dae8fc;strokeColor=#6c8ebf;strokeWidth=4;startArrow=block;startFill=1;endFill=0;" parent="1" edge="1">
                    <mxGeometry width="50" height="50" relative="1" as="geometry">
                        <mxPoint x="1380" y="1669.83" as="sourcePoint"/>
                        <mxPoint x="1140" y="1669.83" as="targetPoint"/>
                    </mxGeometry>
                </mxCell>
                <mxCell id="EHqpeQSWTMFwKQJ2zAnR-166" value="" style="endArrow=none;html=1;rounded=0;fillColor=#dae8fc;strokeColor=#6c8ebf;strokeWidth=4;startArrow=block;startFill=1;endFill=0;" parent="1" edge="1">
                    <mxGeometry width="50" height="50" relative="1" as="geometry">
                        <mxPoint x="1380" y="1699.83" as="sourcePoint"/>
                        <mxPoint x="1140" y="1699.83" as="targetPoint"/>
                    </mxGeometry>
                </mxCell>
                <mxCell id="EHqpeQSWTMFwKQJ2zAnR-167" value="" style="endArrow=none;html=1;rounded=0;fillColor=#dae8fc;strokeColor=#6c8ebf;strokeWidth=4;startArrow=block;startFill=1;endFill=0;" parent="1" edge="1">
                    <mxGeometry width="50" height="50" relative="1" as="geometry">
                        <mxPoint x="1380" y="1729.83" as="sourcePoint"/>
                        <mxPoint x="1140" y="1729.83" as="targetPoint"/>
                    </mxGeometry>
                </mxCell>
                <mxCell id="EHqpeQSWTMFwKQJ2zAnR-168" value="" style="endArrow=none;html=1;rounded=0;fillColor=#dae8fc;strokeColor=#6c8ebf;strokeWidth=4;startArrow=block;startFill=1;endFill=0;" parent="1" edge="1">
                    <mxGeometry width="50" height="50" relative="1" as="geometry">
                        <mxPoint x="1380" y="1759.83" as="sourcePoint"/>
                        <mxPoint x="1140" y="1759.83" as="targetPoint"/>
                    </mxGeometry>
                </mxCell>
                <mxCell id="EHqpeQSWTMFwKQJ2zAnR-174" value="" style="rounded=0;whiteSpace=wrap;html=1;fillColor=#6C8EBF;strokeColor=none;" parent="1" vertex="1">
                    <mxGeometry x="1250" y="1180" width="20" height="590" as="geometry"/>
                </mxCell>
                <mxCell id="EHqpeQSWTMFwKQJ2zAnR-126" value="" style="endArrow=none;html=1;rounded=0;strokeWidth=4;" parent="1" edge="1">
                    <mxGeometry width="50" height="50" relative="1" as="geometry">
                        <mxPoint x="1380" y="1810" as="sourcePoint"/>
                        <mxPoint x="1380" y="1140" as="targetPoint"/>
                    </mxGeometry>
                </mxCell>
                <mxCell id="EHqpeQSWTMFwKQJ2zAnR-1" value="" style="rounded=0;whiteSpace=wrap;html=1;fillColor=none;strokeWidth=2;movable=0;resizable=0;rotatable=0;deletable=0;editable=0;locked=1;connectable=0;" parent="1" vertex="1">
                    <mxGeometry x="320" y="400" width="820" height="1400" as="geometry"/>
                </mxCell>
                <mxCell id="EHqpeQSWTMFwKQJ2zAnR-178" value="2P Push-In" style="rounded=0;whiteSpace=wrap;html=1;" parent="1" vertex="1">
                    <mxGeometry x="320" y="450" width="80" height="20" as="geometry"/>
                </mxCell>
                <mxCell id="EHqpeQSWTMFwKQJ2zAnR-179" value="2P Push-In" style="rounded=0;whiteSpace=wrap;html=1;" parent="1" vertex="1">
                    <mxGeometry x="1060" y="450" width="80" height="20" as="geometry"/>
                </mxCell>
                <mxCell id="EHqpeQSWTMFwKQJ2zAnR-180" value="" style="endArrow=none;html=1;rounded=0;fillColor=#d5e8d4;strokeColor=#82b366;strokeWidth=4;endFill=0;targetPerimeterSpacing=0;shadow=0;" parent="1" edge="1">
                    <mxGeometry width="50" height="50" relative="1" as="geometry">
                        <mxPoint x="400" y="459.52" as="sourcePoint"/>
                        <mxPoint x="480" y="460" as="targetPoint"/>
                    </mxGeometry>
                </mxCell>
                <mxCell id="EHqpeQSWTMFwKQJ2zAnR-184" value="" style="endArrow=none;html=1;rounded=0;fillColor=#d5e8d4;strokeColor=#82b366;strokeWidth=4;endFill=0;targetPerimeterSpacing=0;shadow=0;" parent="1" edge="1">
                    <mxGeometry width="50" height="50" relative="1" as="geometry">
                        <mxPoint x="590" y="460" as="sourcePoint"/>
                        <mxPoint x="900" y="460" as="targetPoint"/>
                    </mxGeometry>
                </mxCell>
                <mxCell id="EHqpeQSWTMFwKQJ2zAnR-185" value="" style="endArrow=none;html=1;rounded=0;fillColor=#d5e8d4;strokeColor=#82b366;strokeWidth=4;endFill=0;targetPerimeterSpacing=0;shadow=0;" parent="1" edge="1">
                    <mxGeometry width="50" height="50" relative="1" as="geometry">
                        <mxPoint x="960" y="460" as="sourcePoint"/>
                        <mxPoint x="1060" y="460" as="targetPoint"/>
                    </mxGeometry>
                </mxCell>
                <mxCell id="EHqpeQSWTMFwKQJ2zAnR-186" value="2P Push-In" style="rounded=0;whiteSpace=wrap;html=1;" parent="1" vertex="1">
                    <mxGeometry x="1060" y="490" width="80" height="20" as="geometry"/>
                </mxCell>
                <mxCell id="EHqpeQSWTMFwKQJ2zAnR-187" value="" style="endArrow=none;html=1;rounded=0;fillColor=#dae8fc;strokeColor=#6c8ebf;strokeWidth=4;startArrow=none;startFill=0;endFill=0;" parent="1" edge="1">
                    <mxGeometry width="50" height="50" relative="1" as="geometry">
                        <mxPoint x="530" y="480" as="sourcePoint"/>
                        <mxPoint x="640" y="950" as="targetPoint"/>
                        <Array as="points">
                            <mxPoint x="530" y="950"/>
                        </Array>
                    </mxGeometry>
                </mxCell>
                <mxCell id="EHqpeQSWTMFwKQJ2zAnR-188" value="" style="endArrow=none;html=1;rounded=0;fillColor=#ffe6cc;strokeColor=#d79b00;strokeWidth=4;startArrow=none;startFill=0;endFill=0;" parent="1" edge="1">
                    <mxGeometry width="50" height="50" relative="1" as="geometry">
                        <mxPoint x="940" y="520" as="sourcePoint"/>
                        <mxPoint x="920" y="750" as="targetPoint"/>
                        <Array as="points">
                            <mxPoint x="940" y="620"/>
                            <mxPoint x="940" y="750"/>
                        </Array>
                    </mxGeometry>
                </mxCell>
                <mxCell id="EHqpeQSWTMFwKQJ2zAnR-216" value="I2C" style="edgeLabel;html=1;align=center;verticalAlign=middle;resizable=0;points=[];" parent="EHqpeQSWTMFwKQJ2zAnR-188" vertex="1" connectable="0">
                    <mxGeometry x="-0.5678" y="1" relative="1" as="geometry">
                        <mxPoint x="-1" y="86" as="offset"/>
                    </mxGeometry>
                </mxCell>
                <mxCell id="EHqpeQSWTMFwKQJ2zAnR-183" value="電力モニタ" style="rounded=0;whiteSpace=wrap;html=1;" parent="1" vertex="1">
                    <mxGeometry x="900" y="440" width="80" height="40" as="geometry"/>
                </mxCell>
                <mxCell id="EHqpeQSWTMFwKQJ2zAnR-182" value="ロードスイッチ" style="rounded=0;whiteSpace=wrap;html=1;" parent="1" vertex="1">
                    <mxGeometry x="470" y="440" width="120" height="40" as="geometry"/>
                </mxCell>
                <mxCell id="EHqpeQSWTMFwKQJ2zAnR-191" value="" style="endArrow=none;html=1;rounded=0;fillColor=#d5e8d4;strokeColor=#82b366;strokeWidth=4;endFill=0;targetPerimeterSpacing=0;shadow=0;startArrow=none;startFill=0;" parent="1" edge="1">
                    <mxGeometry width="50" height="50" relative="1" as="geometry">
                        <mxPoint x="960" y="499.76" as="sourcePoint"/>
                        <mxPoint x="1060" y="500" as="targetPoint"/>
                    </mxGeometry>
                </mxCell>
                <mxCell id="EHqpeQSWTMFwKQJ2zAnR-192" value="DC/DCコンバータ&lt;br&gt;12V/5V" style="rounded=0;whiteSpace=wrap;html=1;" parent="1" vertex="1">
                    <mxGeometry x="680" y="480" width="120" height="40" as="geometry"/>
                </mxCell>
                <mxCell id="EHqpeQSWTMFwKQJ2zAnR-193" value="" style="endArrow=none;html=1;rounded=0;fillColor=#d5e8d4;strokeColor=#82b366;strokeWidth=4;endFill=0;targetPerimeterSpacing=0;shadow=0;startArrow=none;startFill=0;" parent="1" edge="1">
                    <mxGeometry width="50" height="50" relative="1" as="geometry">
                        <mxPoint x="800" y="500" as="sourcePoint"/>
                        <mxPoint x="900" y="500" as="targetPoint"/>
                    </mxGeometry>
                </mxCell>
                <mxCell id="EHqpeQSWTMFwKQJ2zAnR-195" value="RS485&lt;br&gt;トランシーバ" style="rounded=0;whiteSpace=wrap;html=1;opacity=70;" parent="1" vertex="1">
                    <mxGeometry x="520" y="600" width="80" height="40" as="geometry"/>
                </mxCell>
                <mxCell id="EHqpeQSWTMFwKQJ2zAnR-197" value="RJ-45" style="rounded=0;whiteSpace=wrap;html=1;" parent="1" vertex="1">
                    <mxGeometry x="320" y="610" width="80" height="20" as="geometry"/>
                </mxCell>
                <mxCell id="EHqpeQSWTMFwKQJ2zAnR-198" value="" style="endArrow=none;html=1;rounded=0;fillColor=#ffe6cc;strokeColor=#d79b00;strokeWidth=4;startArrow=none;startFill=0;endFill=0;" parent="1" edge="1">
                    <mxGeometry width="50" height="50" relative="1" as="geometry">
                        <mxPoint x="520" y="620" as="sourcePoint"/>
                        <mxPoint x="400" y="619.57" as="targetPoint"/>
                    </mxGeometry>
                </mxCell>
                <mxCell id="EHqpeQSWTMFwKQJ2zAnR-217" value="RS485" style="edgeLabel;html=1;align=center;verticalAlign=middle;resizable=0;points=[];" parent="EHqpeQSWTMFwKQJ2zAnR-198" vertex="1" connectable="0">
                    <mxGeometry x="-0.0667" y="1" relative="1" as="geometry">
                        <mxPoint x="-4" y="-1" as="offset"/>
                    </mxGeometry>
                </mxCell>
                <mxCell id="EHqpeQSWTMFwKQJ2zAnR-200" value="14P DF51A" style="rounded=0;whiteSpace=wrap;html=1;" parent="1" vertex="1">
                    <mxGeometry x="320" y="920" width="80" height="290" as="geometry"/>
                </mxCell>
                <mxCell id="EHqpeQSWTMFwKQJ2zAnR-201" value="6P DF51A" style="rounded=0;whiteSpace=wrap;html=1;" parent="1" vertex="1">
                    <mxGeometry x="320" y="670" width="80" height="60" as="geometry"/>
                </mxCell>
                <mxCell id="EHqpeQSWTMFwKQJ2zAnR-202" value="6P DF51A" style="rounded=0;whiteSpace=wrap;html=1;" parent="1" vertex="1">
                    <mxGeometry x="320" y="1240" width="80" height="20" as="geometry"/>
                </mxCell>
                <mxCell id="EHqpeQSWTMFwKQJ2zAnR-219" value="" style="endArrow=none;html=1;rounded=0;fillColor=#ffe6cc;strokeColor=#d79b00;strokeWidth=4;startArrow=none;startFill=0;endFill=0;" parent="1" edge="1">
                    <mxGeometry width="50" height="50" relative="1" as="geometry">
                        <mxPoint x="620" y="580" as="sourcePoint"/>
                        <mxPoint x="640" y="750" as="targetPoint"/>
                        <Array as="points">
                            <mxPoint x="620" y="620"/>
                            <mxPoint x="620" y="750"/>
                        </Array>
                    </mxGeometry>
                </mxCell>
                <mxCell id="EHqpeQSWTMFwKQJ2zAnR-220" value="UART" style="edgeLabel;html=1;align=center;verticalAlign=middle;resizable=0;points=[];" parent="EHqpeQSWTMFwKQJ2zAnR-219" vertex="1" connectable="0">
                    <mxGeometry x="-0.0036" relative="1" as="geometry">
                        <mxPoint y="25" as="offset"/>
                    </mxGeometry>
                </mxCell>
                <mxCell id="EHqpeQSWTMFwKQJ2zAnR-194" value="4P Push-In" style="rounded=0;whiteSpace=wrap;html=1;" parent="1" vertex="1">
                    <mxGeometry x="320" y="550" width="80" height="20" as="geometry"/>
                </mxCell>
                <mxCell id="EHqpeQSWTMFwKQJ2zAnR-226" value="" style="endArrow=none;html=1;rounded=0;fillColor=#dae8fc;strokeColor=#6c8ebf;strokeWidth=4;startArrow=none;startFill=0;endFill=0;" parent="1" edge="1">
                    <mxGeometry width="50" height="50" relative="1" as="geometry">
                        <mxPoint x="550" y="640" as="sourcePoint"/>
                        <mxPoint x="640" y="930" as="targetPoint"/>
                        <Array as="points">
                            <mxPoint x="550" y="930"/>
                        </Array>
                    </mxGeometry>
                </mxCell>
                <mxCell id="EHqpeQSWTMFwKQJ2zAnR-228" value="ATMEGA 2560" style="rounded=0;whiteSpace=wrap;html=1;movable=1;resizable=1;rotatable=1;deletable=1;editable=1;locked=0;connectable=1;" parent="1" vertex="1">
                    <mxGeometry x="640" y="720" width="280" height="1060" as="geometry"/>
                </mxCell>
                <mxCell id="EHqpeQSWTMFwKQJ2zAnR-230" value="電力モニタ" style="rounded=0;whiteSpace=wrap;html=1;" parent="1" vertex="1">
                    <mxGeometry x="900" y="480" width="80" height="40" as="geometry"/>
                </mxCell>
                <mxCell id="EHqpeQSWTMFwKQJ2zAnR-231" value="" style="endArrow=none;html=1;rounded=0;fillColor=#d5e8d4;strokeColor=#82b366;strokeWidth=4;endFill=0;targetPerimeterSpacing=0;shadow=0;startArrow=block;startFill=1;" parent="1" edge="1">
                    <mxGeometry width="50" height="50" relative="1" as="geometry">
                        <mxPoint x="640" y="500" as="sourcePoint"/>
                        <mxPoint x="680" y="499.78" as="targetPoint"/>
                    </mxGeometry>
                </mxCell>
                <mxCell id="EHqpeQSWTMFwKQJ2zAnR-232" value="DC5V" style="edgeLabel;html=1;align=center;verticalAlign=middle;resizable=0;points=[];" parent="EHqpeQSWTMFwKQJ2zAnR-231" vertex="1" connectable="0">
                    <mxGeometry x="-0.2607" y="1" relative="1" as="geometry">
                        <mxPoint x="-35" y="1" as="offset"/>
                    </mxGeometry>
                </mxCell>
                <mxCell id="EHqpeQSWTMFwKQJ2zAnR-233" value="温度モニタ" style="rounded=0;whiteSpace=wrap;html=1;" parent="1" vertex="1">
                    <mxGeometry x="740" y="590" width="80" height="40" as="geometry"/>
                </mxCell>
                <mxCell id="EHqpeQSWTMFwKQJ2zAnR-234" value="4P Push-In" style="rounded=0;whiteSpace=wrap;html=1;" parent="1" vertex="1">
                    <mxGeometry x="1060" y="550" width="80" height="20" as="geometry"/>
                </mxCell>
                <mxCell id="EHqpeQSWTMFwKQJ2zAnR-235" value="" style="endArrow=none;html=1;rounded=0;fillColor=#f8cecc;strokeColor=#b85450;strokeWidth=4;startArrow=none;startFill=0;endFill=0;" parent="1" edge="1">
                    <mxGeometry width="50" height="50" relative="1" as="geometry">
                        <mxPoint x="780" y="720" as="sourcePoint"/>
                        <mxPoint x="780" y="630" as="targetPoint"/>
                        <Array as="points">
                            <mxPoint x="780" y="680"/>
                        </Array>
                    </mxGeometry>
                </mxCell>
                <mxCell id="EHqpeQSWTMFwKQJ2zAnR-236" value="" style="endArrow=none;html=1;rounded=0;fillColor=#f8cecc;strokeColor=#b85450;strokeWidth=4;startArrow=none;startFill=0;endFill=0;" parent="1" source="EHqpeQSWTMFwKQJ2zAnR-196" edge="1">
                    <mxGeometry width="50" height="50" relative="1" as="geometry">
                        <mxPoint x="640" y="559.74" as="sourcePoint"/>
                        <mxPoint x="400" y="559.74" as="targetPoint"/>
                    </mxGeometry>
                </mxCell>
                <mxCell id="EHqpeQSWTMFwKQJ2zAnR-238" value="" style="endArrow=none;html=1;rounded=0;fillColor=#f8cecc;strokeColor=#b85450;strokeWidth=4;startArrow=none;startFill=0;endFill=0;" parent="1" edge="1">
                    <mxGeometry width="50" height="50" relative="1" as="geometry">
                        <mxPoint x="1060" y="560" as="sourcePoint"/>
                        <mxPoint x="660" y="560" as="targetPoint"/>
                    </mxGeometry>
                </mxCell>
                <mxCell id="EHqpeQSWTMFwKQJ2zAnR-244" value="c" style="endArrow=none;html=1;rounded=0;fillColor=#ffe6cc;strokeColor=#d79b00;strokeWidth=4;startArrow=none;startFill=0;endFill=0;" parent="1" edge="1">
                    <mxGeometry width="50" height="50" relative="1" as="geometry">
                        <mxPoint x="560" y="810" as="sourcePoint"/>
                        <mxPoint x="640" y="810" as="targetPoint"/>
                    </mxGeometry>
                </mxCell>
                <mxCell id="EHqpeQSWTMFwKQJ2zAnR-245" value="UART" style="edgeLabel;html=1;align=center;verticalAlign=middle;resizable=0;points=[];" parent="EHqpeQSWTMFwKQJ2zAnR-244" vertex="1" connectable="0">
                    <mxGeometry x="-0.0036" relative="1" as="geometry">
                        <mxPoint as="offset"/>
                    </mxGeometry>
                </mxCell>
                <mxCell id="EHqpeQSWTMFwKQJ2zAnR-246" value="UART0" style="rounded=0;whiteSpace=wrap;html=1;" parent="1" vertex="1">
                    <mxGeometry x="640" y="800" width="80" height="20" as="geometry"/>
                </mxCell>
                <mxCell id="EHqpeQSWTMFwKQJ2zAnR-247" value="" style="endArrow=none;html=1;rounded=0;fillColor=#d5e8d4;strokeColor=#82b366;strokeWidth=4;endFill=0;targetPerimeterSpacing=0;shadow=0;" parent="1" edge="1">
                    <mxGeometry width="50" height="50" relative="1" as="geometry">
                        <mxPoint x="400" y="890" as="sourcePoint"/>
                        <mxPoint x="480" y="890" as="targetPoint"/>
                        <Array as="points">
                            <mxPoint x="440" y="890"/>
                        </Array>
                    </mxGeometry>
                </mxCell>
                <mxCell id="EHqpeQSWTMFwKQJ2zAnR-249" value="" style="endArrow=none;html=1;rounded=0;fillColor=#d5e8d4;strokeColor=#82b366;strokeWidth=4;endFill=0;targetPerimeterSpacing=0;shadow=0;" parent="1" edge="1">
                    <mxGeometry width="50" height="50" relative="1" as="geometry">
                        <mxPoint x="400" y="830" as="sourcePoint"/>
                        <mxPoint x="440" y="890" as="targetPoint"/>
                        <Array as="points">
                            <mxPoint x="440" y="830"/>
                        </Array>
                    </mxGeometry>
                </mxCell>
                <mxCell id="EHqpeQSWTMFwKQJ2zAnR-239" value="" style="endArrow=none;html=1;rounded=0;fillColor=#ffe6cc;strokeColor=#d79b00;strokeWidth=4;startArrow=none;startFill=0;endFill=0;" parent="1" edge="1">
                    <mxGeometry width="50" height="50" relative="1" as="geometry">
                        <mxPoint x="480" y="810.4300000000001" as="sourcePoint"/>
                        <mxPoint x="400" y="810" as="targetPoint"/>
                    </mxGeometry>
                </mxCell>
                <mxCell id="EHqpeQSWTMFwKQJ2zAnR-241" value="" style="endArrow=none;html=1;rounded=0;fillColor=#ffe6cc;strokeColor=#d79b00;strokeWidth=4;startArrow=none;startFill=0;endFill=0;" parent="1" edge="1">
                    <mxGeometry width="50" height="50" relative="1" as="geometry">
                        <mxPoint x="460" y="810" as="sourcePoint"/>
                        <mxPoint x="400" y="869.7" as="targetPoint"/>
                        <Array as="points">
                            <mxPoint x="460" y="870"/>
                        </Array>
                    </mxGeometry>
                </mxCell>
                <mxCell id="EHqpeQSWTMFwKQJ2zAnR-243" value="USB" style="edgeLabel;html=1;align=center;verticalAlign=middle;resizable=0;points=[];" parent="EHqpeQSWTMFwKQJ2zAnR-241" vertex="1" connectable="0">
                    <mxGeometry x="-0.6144" y="1" relative="1" as="geometry">
                        <mxPoint y="5" as="offset"/>
                    </mxGeometry>
                </mxCell>
                <mxCell id="EHqpeQSWTMFwKQJ2zAnR-204" value="USB Micro-B" style="rounded=0;whiteSpace=wrap;html=1;" parent="1" vertex="1">
                    <mxGeometry x="320" y="800" width="80" height="40" as="geometry"/>
                </mxCell>
                <mxCell id="EHqpeQSWTMFwKQJ2zAnR-203" value="6P DF51A" style="rounded=0;whiteSpace=wrap;html=1;" parent="1" vertex="1">
                    <mxGeometry x="320" y="860" width="80" height="40" as="geometry"/>
                </mxCell>
                <mxCell id="EHqpeQSWTMFwKQJ2zAnR-251" value="UART1" style="rounded=0;whiteSpace=wrap;html=1;" parent="1" vertex="1">
                    <mxGeometry x="640" y="770" width="80" height="20" as="geometry"/>
                </mxCell>
                <mxCell id="EHqpeQSWTMFwKQJ2zAnR-252" value="" style="endArrow=none;html=1;rounded=0;fillColor=#ffe6cc;strokeColor=#d79b00;strokeWidth=4;startArrow=none;startFill=0;endFill=0;" parent="1" edge="1">
                    <mxGeometry width="50" height="50" relative="1" as="geometry">
                        <mxPoint x="570" y="640" as="sourcePoint"/>
                        <mxPoint x="640" y="780" as="targetPoint"/>
                        <Array as="points">
                            <mxPoint x="570" y="780"/>
                        </Array>
                    </mxGeometry>
                </mxCell>
                <mxCell id="EHqpeQSWTMFwKQJ2zAnR-253" value="UART" style="edgeLabel;html=1;align=center;verticalAlign=middle;resizable=0;points=[];" parent="EHqpeQSWTMFwKQJ2zAnR-252" vertex="1" connectable="0">
                    <mxGeometry x="-0.0036" relative="1" as="geometry">
                        <mxPoint y="-29" as="offset"/>
                    </mxGeometry>
                </mxCell>
                <mxCell id="EHqpeQSWTMFwKQJ2zAnR-254" value="UART2" style="rounded=0;whiteSpace=wrap;html=1;" parent="1" vertex="1">
                    <mxGeometry x="640" y="740" width="80" height="20" as="geometry"/>
                </mxCell>
                <mxCell id="EHqpeQSWTMFwKQJ2zAnR-255" value="I2C" style="rounded=0;whiteSpace=wrap;html=1;" parent="1" vertex="1">
                    <mxGeometry x="840" y="740" width="80" height="20" as="geometry"/>
                </mxCell>
                <mxCell id="EHqpeQSWTMFwKQJ2zAnR-256" value="EEPROM" style="rounded=0;whiteSpace=wrap;html=1;" parent="1" vertex="1">
                    <mxGeometry x="980" y="600" width="80" height="40" as="geometry"/>
                </mxCell>
                <mxCell id="EHqpeQSWTMFwKQJ2zAnR-257" value="" style="endArrow=none;html=1;rounded=0;fillColor=#ffe6cc;strokeColor=#d79b00;strokeWidth=4;endFill=0;targetPerimeterSpacing=0;shadow=0;" parent="1" edge="1">
                    <mxGeometry width="50" height="50" relative="1" as="geometry">
                        <mxPoint x="940" y="620" as="sourcePoint"/>
                        <mxPoint x="980" y="620" as="targetPoint"/>
                    </mxGeometry>
                </mxCell>
                <mxCell id="EHqpeQSWTMFwKQJ2zAnR-258" value="ADC" style="rounded=0;whiteSpace=wrap;html=1;" parent="1" vertex="1">
                    <mxGeometry x="740" y="720" width="80" height="20" as="geometry"/>
                </mxCell>
                <mxCell id="EHqpeQSWTMFwKQJ2zAnR-259" value="GPIO" style="rounded=0;whiteSpace=wrap;html=1;" parent="1" vertex="1">
                    <mxGeometry x="640" y="920" width="80" height="860" as="geometry"/>
                </mxCell>
                <mxCell id="EHqpeQSWTMFwKQJ2zAnR-261" value="" style="endArrow=none;html=1;rounded=0;fillColor=#f8cecc;strokeColor=#b85450;strokeWidth=4;startArrow=none;startFill=0;endFill=0;" parent="1" target="EHqpeQSWTMFwKQJ2zAnR-196" edge="1">
                    <mxGeometry width="50" height="50" relative="1" as="geometry">
                        <mxPoint x="640" y="559.74" as="sourcePoint"/>
                        <mxPoint x="400" y="559.74" as="targetPoint"/>
                    </mxGeometry>
                </mxCell>
                <mxCell id="EHqpeQSWTMFwKQJ2zAnR-196" value="DF Player" style="rounded=0;whiteSpace=wrap;html=1;" parent="1" vertex="1">
                    <mxGeometry x="580" y="540" width="80" height="40" as="geometry"/>
                </mxCell>
                <mxCell id="EHqpeQSWTMFwKQJ2zAnR-263" value="SPI" style="rounded=0;whiteSpace=wrap;html=1;" parent="1" vertex="1">
                    <mxGeometry x="840" y="770" width="80" height="20" as="geometry"/>
                </mxCell>
                <mxCell id="EHqpeQSWTMFwKQJ2zAnR-264" value="" style="endArrow=none;html=1;rounded=0;fillColor=#ffe6cc;strokeColor=#d79b00;strokeWidth=4;endFill=0;targetPerimeterSpacing=0;shadow=0;" parent="1" edge="1">
                    <mxGeometry width="50" height="50" relative="1" as="geometry">
                        <mxPoint x="920" y="779.64" as="sourcePoint"/>
                        <mxPoint x="1060" y="780" as="targetPoint"/>
                    </mxGeometry>
                </mxCell>
                <mxCell id="EHqpeQSWTMFwKQJ2zAnR-265" value="SPI" style="edgeLabel;html=1;align=center;verticalAlign=middle;resizable=0;points=[];" parent="EHqpeQSWTMFwKQJ2zAnR-264" vertex="1" connectable="0">
                    <mxGeometry x="-0.0033" relative="1" as="geometry">
                        <mxPoint as="offset"/>
                    </mxGeometry>
                </mxCell>
                <mxCell id="EHqpeQSWTMFwKQJ2zAnR-268" value="" style="endArrow=block;html=1;rounded=0;fillColor=#d5e8d4;strokeColor=#82b366;strokeWidth=4;endFill=1;targetPerimeterSpacing=0;shadow=0;" parent="1" edge="1">
                    <mxGeometry width="50" height="50" relative="1" as="geometry">
                        <mxPoint x="560" y="889.9200000000001" as="sourcePoint"/>
                        <mxPoint x="600" y="890" as="targetPoint"/>
                        <Array as="points"/>
                    </mxGeometry>
                </mxCell>
                <mxCell id="EHqpeQSWTMFwKQJ2zAnR-270" value="DC5V" style="edgeLabel;html=1;align=center;verticalAlign=middle;resizable=0;points=[];" parent="EHqpeQSWTMFwKQJ2zAnR-268" vertex="1" connectable="0">
                    <mxGeometry x="0.3399" relative="1" as="geometry">
                        <mxPoint x="33" as="offset"/>
                    </mxGeometry>
                </mxCell>
                <mxCell id="EHqpeQSWTMFwKQJ2zAnR-277" value="" style="endArrow=none;html=1;rounded=0;fillColor=#dae8fc;strokeColor=#6c8ebf;strokeWidth=4;startArrow=none;startFill=0;endFill=0;" parent="1" edge="1">
                    <mxGeometry width="50" height="50" relative="1" as="geometry">
                        <mxPoint x="640" y="980" as="sourcePoint"/>
                        <mxPoint x="510" y="918.95" as="targetPoint"/>
                        <Array as="points">
                            <mxPoint x="510" y="980"/>
                        </Array>
                    </mxGeometry>
                </mxCell>
                <mxCell id="EHqpeQSWTMFwKQJ2zAnR-278" value="" style="endArrow=none;html=1;rounded=0;fillColor=#dae8fc;strokeColor=#6c8ebf;strokeWidth=4;startArrow=none;startFill=0;endFill=0;" parent="1" edge="1">
                    <mxGeometry width="50" height="50" relative="1" as="geometry">
                        <mxPoint x="640" y="990.53" as="sourcePoint"/>
                        <mxPoint x="500" y="920" as="targetPoint"/>
                        <Array as="points">
                            <mxPoint x="500" y="991"/>
                        </Array>
                    </mxGeometry>
                </mxCell>
                <mxCell id="EHqpeQSWTMFwKQJ2zAnR-279" value="" style="endArrow=none;html=1;rounded=0;fillColor=#dae8fc;strokeColor=#6c8ebf;strokeWidth=4;startArrow=none;startFill=0;endFill=0;" parent="1" edge="1">
                    <mxGeometry width="50" height="50" relative="1" as="geometry">
                        <mxPoint x="640" y="999.53" as="sourcePoint"/>
                        <mxPoint x="490" y="920" as="targetPoint"/>
                        <Array as="points">
                            <mxPoint x="490" y="1000"/>
                        </Array>
                    </mxGeometry>
                </mxCell>
                <mxCell id="EHqpeQSWTMFwKQJ2zAnR-280" value="" style="endArrow=none;html=1;rounded=0;fillColor=#dae8fc;strokeColor=#6c8ebf;strokeWidth=4;startArrow=block;startFill=1;endFill=0;" parent="1" edge="1">
                    <mxGeometry width="50" height="50" relative="1" as="geometry">
                        <mxPoint x="440" y="930" as="sourcePoint"/>
                        <mxPoint x="400" y="929.81" as="targetPoint"/>
                    </mxGeometry>
                </mxCell>
                <mxCell id="EHqpeQSWTMFwKQJ2zAnR-281" value="RESET" style="edgeLabel;html=1;align=center;verticalAlign=middle;resizable=0;points=[];" parent="EHqpeQSWTMFwKQJ2zAnR-280" vertex="1" connectable="0">
                    <mxGeometry x="0.1808" relative="1" as="geometry">
                        <mxPoint x="43" as="offset"/>
                    </mxGeometry>
                </mxCell>
                <mxCell id="EHqpeQSWTMFwKQJ2zAnR-282" value="" style="endArrow=none;html=1;rounded=0;fillColor=#dae8fc;strokeColor=#6c8ebf;strokeWidth=4;startArrow=block;startFill=1;endFill=0;" parent="1" edge="1">
                    <mxGeometry width="50" height="50" relative="1" as="geometry">
                        <mxPoint x="1020" y="800.27" as="sourcePoint"/>
                        <mxPoint x="1060" y="800" as="targetPoint"/>
                    </mxGeometry>
                </mxCell>
                <mxCell id="EHqpeQSWTMFwKQJ2zAnR-283" value="RESET" style="edgeLabel;html=1;align=center;verticalAlign=middle;resizable=0;points=[];" parent="EHqpeQSWTMFwKQJ2zAnR-282" vertex="1" connectable="0">
                    <mxGeometry x="0.1808" relative="1" as="geometry">
                        <mxPoint x="-44" as="offset"/>
                    </mxGeometry>
                </mxCell>
                <mxCell id="EHqpeQSWTMFwKQJ2zAnR-262" value="ICSP" style="rounded=0;whiteSpace=wrap;html=1;" parent="1" vertex="1">
                    <mxGeometry x="1060" y="770" width="80" height="40" as="geometry"/>
                </mxCell>
                <mxCell id="EHqpeQSWTMFwKQJ2zAnR-285" value="" style="endArrow=none;html=1;rounded=0;fillColor=#dae8fc;strokeColor=#6c8ebf;strokeWidth=4;startArrow=block;startFill=1;endFill=0;" parent="1" edge="1">
                    <mxGeometry width="50" height="50" relative="1" as="geometry">
                        <mxPoint x="600" y="830.19" as="sourcePoint"/>
                        <mxPoint x="560" y="830" as="targetPoint"/>
                    </mxGeometry>
                </mxCell>
                <mxCell id="EHqpeQSWTMFwKQJ2zAnR-286" value="RESET" style="edgeLabel;html=1;align=center;verticalAlign=middle;resizable=0;points=[];" parent="EHqpeQSWTMFwKQJ2zAnR-285" vertex="1" connectable="0">
                    <mxGeometry x="0.1808" relative="1" as="geometry">
                        <mxPoint x="43" as="offset"/>
                    </mxGeometry>
                </mxCell>
                <mxCell id="EHqpeQSWTMFwKQJ2zAnR-229" value="FT232RL" style="rounded=0;whiteSpace=wrap;html=1;opacity=70;" parent="1" vertex="1">
                    <mxGeometry x="480" y="800" width="80" height="40" as="geometry"/>
                </mxCell>
                <mxCell id="EHqpeQSWTMFwKQJ2zAnR-287" value="" style="endArrow=none;html=1;rounded=0;fillColor=#d5e8d4;strokeColor=#82b366;strokeWidth=4;endFill=0;targetPerimeterSpacing=0;shadow=0;startArrow=block;startFill=1;" parent="1" edge="1">
                    <mxGeometry width="50" height="50" relative="1" as="geometry">
                        <mxPoint x="810" y="540" as="sourcePoint"/>
                        <mxPoint x="850" y="500" as="targetPoint"/>
                        <Array as="points">
                            <mxPoint x="850" y="540"/>
                        </Array>
                    </mxGeometry>
                </mxCell>
                <mxCell id="EHqpeQSWTMFwKQJ2zAnR-288" value="DC12V" style="edgeLabel;html=1;align=center;verticalAlign=middle;resizable=0;points=[];" parent="EHqpeQSWTMFwKQJ2zAnR-287" vertex="1" connectable="0">
                    <mxGeometry x="-0.2607" y="1" relative="1" as="geometry">
                        <mxPoint x="-50" y="1" as="offset"/>
                    </mxGeometry>
                </mxCell>
                <mxCell id="EHqpeQSWTMFwKQJ2zAnR-290" value="" style="endArrow=none;html=1;rounded=0;fillColor=#d5e8d4;strokeColor=#82b366;strokeWidth=4;endFill=0;targetPerimeterSpacing=0;shadow=0;startArrow=block;startFill=1;" parent="1" edge="1">
                    <mxGeometry width="50" height="50" relative="1" as="geometry">
                        <mxPoint x="480" y="500" as="sourcePoint"/>
                        <mxPoint x="440" y="460" as="targetPoint"/>
                        <Array as="points">
                            <mxPoint x="440" y="500"/>
                        </Array>
                    </mxGeometry>
                </mxCell>
                <mxCell id="EHqpeQSWTMFwKQJ2zAnR-291" value="DC12V" style="edgeLabel;html=1;align=center;verticalAlign=middle;resizable=0;points=[];" parent="EHqpeQSWTMFwKQJ2zAnR-290" vertex="1" connectable="0">
                    <mxGeometry x="-0.2607" y="1" relative="1" as="geometry">
                        <mxPoint x="50" y="-1" as="offset"/>
                    </mxGeometry>
                </mxCell>
                <mxCell id="EHqpeQSWTMFwKQJ2zAnR-292" value="" style="endArrow=block;html=1;rounded=0;fillColor=#d5e8d4;strokeColor=#82b366;strokeWidth=4;endFill=1;targetPerimeterSpacing=0;shadow=0;" parent="1" edge="1">
                    <mxGeometry width="50" height="50" relative="1" as="geometry">
                        <mxPoint x="440" y="959.85" as="sourcePoint"/>
                        <mxPoint x="400" y="960" as="targetPoint"/>
                        <Array as="points"/>
                    </mxGeometry>
                </mxCell>
                <mxCell id="EHqpeQSWTMFwKQJ2zAnR-293" value="DC18V" style="edgeLabel;html=1;align=center;verticalAlign=middle;resizable=0;points=[];" parent="EHqpeQSWTMFwKQJ2zAnR-292" vertex="1" connectable="0">
                    <mxGeometry x="0.3399" relative="1" as="geometry">
                        <mxPoint x="47" as="offset"/>
                    </mxGeometry>
                </mxCell>
                <mxCell id="EHqpeQSWTMFwKQJ2zAnR-294" value="" style="endArrow=block;html=1;rounded=0;fillColor=#d5e8d4;strokeColor=#82b366;strokeWidth=4;endFill=1;targetPerimeterSpacing=0;shadow=0;" parent="1" edge="1">
                    <mxGeometry width="50" height="50" relative="1" as="geometry">
                        <mxPoint x="440" y="989.74" as="sourcePoint"/>
                        <mxPoint x="400" y="989.89" as="targetPoint"/>
                        <Array as="points"/>
                    </mxGeometry>
                </mxCell>
                <mxCell id="EHqpeQSWTMFwKQJ2zAnR-295" value="DC12V" style="edgeLabel;html=1;align=center;verticalAlign=middle;resizable=0;points=[];" parent="EHqpeQSWTMFwKQJ2zAnR-294" vertex="1" connectable="0">
                    <mxGeometry x="0.3399" relative="1" as="geometry">
                        <mxPoint x="47" as="offset"/>
                    </mxGeometry>
                </mxCell>
                <mxCell id="EHqpeQSWTMFwKQJ2zAnR-296" value="" style="endArrow=block;html=1;rounded=0;fillColor=#d5e8d4;strokeColor=#82b366;strokeWidth=4;endFill=1;targetPerimeterSpacing=0;shadow=0;" parent="1" edge="1">
                    <mxGeometry width="50" height="50" relative="1" as="geometry">
                        <mxPoint x="440" y="1019.74" as="sourcePoint"/>
                        <mxPoint x="400" y="1019.89" as="targetPoint"/>
                        <Array as="points"/>
                    </mxGeometry>
                </mxCell>
                <mxCell id="EHqpeQSWTMFwKQJ2zAnR-297" value="DC5V" style="edgeLabel;html=1;align=center;verticalAlign=middle;resizable=0;points=[];" parent="EHqpeQSWTMFwKQJ2zAnR-296" vertex="1" connectable="0">
                    <mxGeometry x="0.3399" relative="1" as="geometry">
                        <mxPoint x="47" as="offset"/>
                    </mxGeometry>
                </mxCell>
                <mxCell id="EHqpeQSWTMFwKQJ2zAnR-298" value="" style="endArrow=none;html=1;rounded=0;fillColor=#dae8fc;strokeColor=#6c8ebf;strokeWidth=4;startArrow=none;startFill=0;endFill=0;" parent="1" edge="1">
                    <mxGeometry width="50" height="50" relative="1" as="geometry">
                        <mxPoint x="640" y="1049.68" as="sourcePoint"/>
                        <mxPoint x="400" y="1049.68" as="targetPoint"/>
                    </mxGeometry>
                </mxCell>
                <mxCell id="EHqpeQSWTMFwKQJ2zAnR-299" value="" style="endArrow=none;html=1;rounded=0;fillColor=#dae8fc;strokeColor=#6c8ebf;strokeWidth=4;startArrow=none;startFill=0;endFill=0;" parent="1" edge="1">
                    <mxGeometry width="50" height="50" relative="1" as="geometry">
                        <mxPoint x="640" y="1079.68" as="sourcePoint"/>
                        <mxPoint x="400" y="1079.68" as="targetPoint"/>
                    </mxGeometry>
                </mxCell>
                <mxCell id="EHqpeQSWTMFwKQJ2zAnR-300" value="" style="endArrow=none;html=1;rounded=0;fillColor=#dae8fc;strokeColor=#6c8ebf;strokeWidth=4;startArrow=none;startFill=0;endFill=0;" parent="1" edge="1">
                    <mxGeometry width="50" height="50" relative="1" as="geometry">
                        <mxPoint x="640" y="1109.68" as="sourcePoint"/>
                        <mxPoint x="400" y="1109.68" as="targetPoint"/>
                    </mxGeometry>
                </mxCell>
                <mxCell id="EHqpeQSWTMFwKQJ2zAnR-301" value="" style="endArrow=none;html=1;rounded=0;fillColor=#dae8fc;strokeColor=#6c8ebf;strokeWidth=4;startArrow=none;startFill=0;endFill=0;" parent="1" edge="1">
                    <mxGeometry width="50" height="50" relative="1" as="geometry">
                        <mxPoint x="640" y="1139.68" as="sourcePoint"/>
                        <mxPoint x="400" y="1139.68" as="targetPoint"/>
                    </mxGeometry>
                </mxCell>
                <mxCell id="EHqpeQSWTMFwKQJ2zAnR-303" value="" style="endArrow=none;html=1;rounded=0;fillColor=#dae8fc;strokeColor=#6c8ebf;strokeWidth=4;startArrow=none;startFill=0;endFill=0;" parent="1" edge="1">
                    <mxGeometry width="50" height="50" relative="1" as="geometry">
                        <mxPoint x="640" y="1199.68" as="sourcePoint"/>
                        <mxPoint x="400" y="1199.68" as="targetPoint"/>
                    </mxGeometry>
                </mxCell>
                <mxCell id="EHqpeQSWTMFwKQJ2zAnR-276" value="DEBUG&lt;br&gt;INTER-&lt;br&gt;FACE" style="rounded=0;whiteSpace=wrap;html=1;" parent="1" vertex="1">
                    <mxGeometry x="540" y="960" width="60" height="60" as="geometry"/>
                </mxCell>
                <mxCell id="EHqpeQSWTMFwKQJ2zAnR-304" value="" style="endArrow=none;html=1;rounded=0;fillColor=#dae8fc;strokeColor=#6c8ebf;strokeWidth=4;startArrow=none;startFill=0;endFill=0;" parent="1" edge="1">
                    <mxGeometry width="50" height="50" relative="1" as="geometry">
                        <mxPoint x="400" y="1170" as="sourcePoint"/>
                        <mxPoint x="520" y="840" as="targetPoint"/>
                        <Array as="points">
                            <mxPoint x="520" y="1170"/>
                        </Array>
                    </mxGeometry>
                </mxCell>
                <mxCell id="EHqpeQSWTMFwKQJ2zAnR-305" value="SOFT-&lt;br&gt;WARE&lt;br&gt;I2C" style="rounded=0;whiteSpace=wrap;html=1;" parent="1" vertex="1">
                    <mxGeometry x="640" y="1220" width="50" height="60" as="geometry"/>
                </mxCell>
                <mxCell id="EHqpeQSWTMFwKQJ2zAnR-306" value="" style="endArrow=none;html=1;rounded=0;fillColor=#ffe6cc;strokeColor=#d79b00;strokeWidth=4;startArrow=none;startFill=0;endFill=0;" parent="1" edge="1">
                    <mxGeometry width="50" height="50" relative="1" as="geometry">
                        <mxPoint x="640" y="1250.14" as="sourcePoint"/>
                        <mxPoint x="400" y="1250" as="targetPoint"/>
                    </mxGeometry>
                </mxCell>
                <mxCell id="EHqpeQSWTMFwKQJ2zAnR-307" value="I2C" style="edgeLabel;html=1;align=center;verticalAlign=middle;resizable=0;points=[];" parent="EHqpeQSWTMFwKQJ2zAnR-306" vertex="1" connectable="0">
                    <mxGeometry x="-0.3333" y="2" relative="1" as="geometry">
                        <mxPoint x="-40" y="-2" as="offset"/>
                    </mxGeometry>
                </mxCell>
                <mxCell id="EHqpeQSWTMFwKQJ2zAnR-309" value="" style="endArrow=none;html=1;rounded=0;fillColor=#dae8fc;strokeColor=#6c8ebf;strokeWidth=4;startArrow=none;startFill=0;endFill=0;" parent="1" edge="1">
                    <mxGeometry width="50" height="50" relative="1" as="geometry">
                        <mxPoint x="640" y="1399.5800000000002" as="sourcePoint"/>
                        <mxPoint x="400" y="1399.5800000000002" as="targetPoint"/>
                    </mxGeometry>
                </mxCell>
                <mxCell id="EHqpeQSWTMFwKQJ2zAnR-311" value="" style="endArrow=none;html=1;rounded=0;fillColor=#dae8fc;strokeColor=#6c8ebf;strokeWidth=4;startArrow=none;startFill=0;endFill=0;" parent="1" edge="1">
                    <mxGeometry width="50" height="50" relative="1" as="geometry">
                        <mxPoint x="640" y="1429.5800000000002" as="sourcePoint"/>
                        <mxPoint x="400" y="1429.5800000000002" as="targetPoint"/>
                    </mxGeometry>
                </mxCell>
                <mxCell id="EHqpeQSWTMFwKQJ2zAnR-312" value="" style="endArrow=none;html=1;rounded=0;fillColor=#dae8fc;strokeColor=#6c8ebf;strokeWidth=4;startArrow=none;startFill=0;endFill=0;" parent="1" edge="1">
                    <mxGeometry width="50" height="50" relative="1" as="geometry">
                        <mxPoint x="640" y="1460.0000000000002" as="sourcePoint"/>
                        <mxPoint x="400" y="1460.0000000000002" as="targetPoint"/>
                    </mxGeometry>
                </mxCell>
                <mxCell id="EHqpeQSWTMFwKQJ2zAnR-313" value="" style="endArrow=none;html=1;rounded=0;fillColor=#dae8fc;strokeColor=#6c8ebf;strokeWidth=4;startArrow=none;startFill=0;endFill=0;" parent="1" edge="1">
                    <mxGeometry width="50" height="50" relative="1" as="geometry">
                        <mxPoint x="640" y="1490.0000000000002" as="sourcePoint"/>
                        <mxPoint x="400" y="1490.0000000000002" as="targetPoint"/>
                    </mxGeometry>
                </mxCell>
                <mxCell id="EHqpeQSWTMFwKQJ2zAnR-314" value="" style="endArrow=none;html=1;rounded=0;fillColor=#dae8fc;strokeColor=#6c8ebf;strokeWidth=4;startArrow=none;startFill=0;endFill=0;" parent="1" edge="1">
                    <mxGeometry width="50" height="50" relative="1" as="geometry">
                        <mxPoint x="640" y="1520.0000000000002" as="sourcePoint"/>
                        <mxPoint x="400" y="1520.0000000000002" as="targetPoint"/>
                    </mxGeometry>
                </mxCell>
                <mxCell id="EHqpeQSWTMFwKQJ2zAnR-315" value="" style="endArrow=none;html=1;rounded=0;fillColor=#dae8fc;strokeColor=#6c8ebf;strokeWidth=4;startArrow=none;startFill=0;endFill=0;" parent="1" edge="1">
                    <mxGeometry width="50" height="50" relative="1" as="geometry">
                        <mxPoint x="640" y="1550.0000000000002" as="sourcePoint"/>
                        <mxPoint x="400" y="1550.0000000000002" as="targetPoint"/>
                    </mxGeometry>
                </mxCell>
                <mxCell id="EHqpeQSWTMFwKQJ2zAnR-316" value="" style="endArrow=none;html=1;rounded=0;fillColor=#dae8fc;strokeColor=#6c8ebf;strokeWidth=4;startArrow=none;startFill=0;endFill=0;" parent="1" edge="1">
                    <mxGeometry width="50" height="50" relative="1" as="geometry">
                        <mxPoint x="640" y="1580.4200000000003" as="sourcePoint"/>
                        <mxPoint x="400" y="1580.4200000000003" as="targetPoint"/>
                    </mxGeometry>
                </mxCell>
                <mxCell id="EHqpeQSWTMFwKQJ2zAnR-317" value="" style="endArrow=none;html=1;rounded=0;fillColor=#dae8fc;strokeColor=#6c8ebf;strokeWidth=4;startArrow=none;startFill=0;endFill=0;" parent="1" edge="1">
                    <mxGeometry width="50" height="50" relative="1" as="geometry">
                        <mxPoint x="640" y="1610.4200000000003" as="sourcePoint"/>
                        <mxPoint x="400" y="1610.4200000000003" as="targetPoint"/>
                    </mxGeometry>
                </mxCell>
                <mxCell id="EHqpeQSWTMFwKQJ2zAnR-318" value="" style="endArrow=none;html=1;rounded=0;fillColor=#dae8fc;strokeColor=#6c8ebf;strokeWidth=4;startArrow=none;startFill=0;endFill=0;" parent="1" edge="1">
                    <mxGeometry width="50" height="50" relative="1" as="geometry">
                        <mxPoint x="640" y="1640.0000000000002" as="sourcePoint"/>
                        <mxPoint x="400" y="1640.0000000000002" as="targetPoint"/>
                    </mxGeometry>
                </mxCell>
                <mxCell id="EHqpeQSWTMFwKQJ2zAnR-319" value="" style="endArrow=none;html=1;rounded=0;fillColor=#dae8fc;strokeColor=#6c8ebf;strokeWidth=4;startArrow=none;startFill=0;endFill=0;" parent="1" edge="1">
                    <mxGeometry width="50" height="50" relative="1" as="geometry">
                        <mxPoint x="640" y="1670.0000000000002" as="sourcePoint"/>
                        <mxPoint x="400" y="1670.0000000000002" as="targetPoint"/>
                    </mxGeometry>
                </mxCell>
                <mxCell id="EHqpeQSWTMFwKQJ2zAnR-320" value="" style="endArrow=none;html=1;rounded=0;fillColor=#dae8fc;strokeColor=#6c8ebf;strokeWidth=4;startArrow=none;startFill=0;endFill=0;" parent="1" edge="1">
                    <mxGeometry width="50" height="50" relative="1" as="geometry">
                        <mxPoint x="640" y="1700.4200000000003" as="sourcePoint"/>
                        <mxPoint x="400" y="1700.4200000000003" as="targetPoint"/>
                    </mxGeometry>
                </mxCell>
                <mxCell id="EHqpeQSWTMFwKQJ2zAnR-321" value="" style="endArrow=none;html=1;rounded=0;fillColor=#dae8fc;strokeColor=#6c8ebf;strokeWidth=4;startArrow=none;startFill=0;endFill=0;" parent="1" edge="1">
                    <mxGeometry width="50" height="50" relative="1" as="geometry">
                        <mxPoint x="640" y="1730.4200000000003" as="sourcePoint"/>
                        <mxPoint x="400" y="1730.4200000000003" as="targetPoint"/>
                    </mxGeometry>
                </mxCell>
                <mxCell id="EHqpeQSWTMFwKQJ2zAnR-322" value="" style="endArrow=none;html=1;rounded=0;fillColor=#dae8fc;strokeColor=#6c8ebf;strokeWidth=4;startArrow=none;startFill=0;endFill=0;" parent="1" edge="1">
                    <mxGeometry width="50" height="50" relative="1" as="geometry">
                        <mxPoint x="640" y="1759.7600000000002" as="sourcePoint"/>
                        <mxPoint x="400" y="1759.7600000000002" as="targetPoint"/>
                    </mxGeometry>
                </mxCell>
                <mxCell id="EHqpeQSWTMFwKQJ2zAnR-308" value="18P DF51A" style="rounded=0;whiteSpace=wrap;html=1;" parent="1" vertex="1">
                    <mxGeometry x="320" y="1390" width="80" height="380" as="geometry"/>
                </mxCell>
                <mxCell id="EHqpeQSWTMFwKQJ2zAnR-323" value="DEBUG&lt;br&gt;INTER-&lt;br&gt;FACE" style="rounded=0;whiteSpace=wrap;html=1;" parent="1" vertex="1">
                    <mxGeometry x="540" y="1390" width="60" height="380" as="geometry"/>
                </mxCell>
                <mxCell id="EHqpeQSWTMFwKQJ2zAnR-328" value="" style="endArrow=none;html=1;rounded=0;fillColor=#dae8fc;strokeColor=#6c8ebf;strokeWidth=4;startArrow=none;startFill=0;endFill=0;" parent="1" edge="1">
                    <mxGeometry width="50" height="50" relative="1" as="geometry">
                        <mxPoint x="1060" y="1190" as="sourcePoint"/>
                        <mxPoint x="920" y="1190.0000000000002" as="targetPoint"/>
                    </mxGeometry>
                </mxCell>
                <mxCell id="EHqpeQSWTMFwKQJ2zAnR-329" value="" style="endArrow=none;html=1;rounded=0;fillColor=#dae8fc;strokeColor=#6c8ebf;strokeWidth=4;startArrow=none;startFill=0;endFill=0;" parent="1" edge="1">
                    <mxGeometry width="50" height="50" relative="1" as="geometry">
                        <mxPoint x="1060" y="1219.52" as="sourcePoint"/>
                        <mxPoint x="920" y="1219.5200000000002" as="targetPoint"/>
                    </mxGeometry>
                </mxCell>
                <mxCell id="EHqpeQSWTMFwKQJ2zAnR-330" value="" style="endArrow=none;html=1;rounded=0;fillColor=#dae8fc;strokeColor=#6c8ebf;strokeWidth=4;startArrow=none;startFill=0;endFill=0;" parent="1" edge="1">
                    <mxGeometry width="50" height="50" relative="1" as="geometry">
                        <mxPoint x="1060" y="1249.76" as="sourcePoint"/>
                        <mxPoint x="920" y="1249.7600000000002" as="targetPoint"/>
                    </mxGeometry>
                </mxCell>
                <mxCell id="EHqpeQSWTMFwKQJ2zAnR-331" value="" style="endArrow=none;html=1;rounded=0;fillColor=#dae8fc;strokeColor=#6c8ebf;strokeWidth=4;startArrow=none;startFill=0;endFill=0;" parent="1" edge="1">
                    <mxGeometry width="50" height="50" relative="1" as="geometry">
                        <mxPoint x="1060" y="1279.76" as="sourcePoint"/>
                        <mxPoint x="920" y="1279.7600000000002" as="targetPoint"/>
                    </mxGeometry>
                </mxCell>
                <mxCell id="EHqpeQSWTMFwKQJ2zAnR-332" value="" style="endArrow=none;html=1;rounded=0;fillColor=#dae8fc;strokeColor=#6c8ebf;strokeWidth=4;startArrow=none;startFill=0;endFill=0;" parent="1" edge="1">
                    <mxGeometry width="50" height="50" relative="1" as="geometry">
                        <mxPoint x="1060" y="1309.28" as="sourcePoint"/>
                        <mxPoint x="920" y="1309.2800000000002" as="targetPoint"/>
                    </mxGeometry>
                </mxCell>
                <mxCell id="EHqpeQSWTMFwKQJ2zAnR-333" value="" style="endArrow=none;html=1;rounded=0;fillColor=#dae8fc;strokeColor=#6c8ebf;strokeWidth=4;startArrow=none;startFill=0;endFill=0;" parent="1" edge="1">
                    <mxGeometry width="50" height="50" relative="1" as="geometry">
                        <mxPoint x="1060" y="1339.52" as="sourcePoint"/>
                        <mxPoint x="920" y="1339.5200000000002" as="targetPoint"/>
                    </mxGeometry>
                </mxCell>
                <mxCell id="EHqpeQSWTMFwKQJ2zAnR-334" value="" style="endArrow=none;html=1;rounded=0;fillColor=#dae8fc;strokeColor=#6c8ebf;strokeWidth=4;startArrow=none;startFill=0;endFill=0;" parent="1" edge="1">
                    <mxGeometry width="50" height="50" relative="1" as="geometry">
                        <mxPoint x="1060" y="1369.88" as="sourcePoint"/>
                        <mxPoint x="920" y="1369.88" as="targetPoint"/>
                    </mxGeometry>
                </mxCell>
                <mxCell id="EHqpeQSWTMFwKQJ2zAnR-335" value="" style="endArrow=none;html=1;rounded=0;fillColor=#dae8fc;strokeColor=#6c8ebf;strokeWidth=4;startArrow=none;startFill=0;endFill=0;" parent="1" edge="1">
                    <mxGeometry width="50" height="50" relative="1" as="geometry">
                        <mxPoint x="1060" y="1399.4" as="sourcePoint"/>
                        <mxPoint x="920" y="1399.4" as="targetPoint"/>
                    </mxGeometry>
                </mxCell>
                <mxCell id="EHqpeQSWTMFwKQJ2zAnR-336" value="" style="endArrow=none;html=1;rounded=0;fillColor=#dae8fc;strokeColor=#6c8ebf;strokeWidth=4;startArrow=none;startFill=0;endFill=0;" parent="1" edge="1">
                    <mxGeometry width="50" height="50" relative="1" as="geometry">
                        <mxPoint x="1060" y="1429.6399999999999" as="sourcePoint"/>
                        <mxPoint x="920" y="1429.6400000000003" as="targetPoint"/>
                    </mxGeometry>
                </mxCell>
                <mxCell id="EHqpeQSWTMFwKQJ2zAnR-337" value="" style="endArrow=none;html=1;rounded=0;fillColor=#dae8fc;strokeColor=#6c8ebf;strokeWidth=4;startArrow=none;startFill=0;endFill=0;" parent="1" edge="1">
                    <mxGeometry width="50" height="50" relative="1" as="geometry">
                        <mxPoint x="1060" y="1459.94" as="sourcePoint"/>
                        <mxPoint x="920" y="1459.9400000000003" as="targetPoint"/>
                    </mxGeometry>
                </mxCell>
                <mxCell id="EHqpeQSWTMFwKQJ2zAnR-338" value="" style="endArrow=none;html=1;rounded=0;fillColor=#dae8fc;strokeColor=#6c8ebf;strokeWidth=4;startArrow=none;startFill=0;endFill=0;" parent="1" edge="1">
                    <mxGeometry width="50" height="50" relative="1" as="geometry">
                        <mxPoint x="1060" y="1489.46" as="sourcePoint"/>
                        <mxPoint x="920" y="1489.4600000000003" as="targetPoint"/>
                    </mxGeometry>
                </mxCell>
                <mxCell id="EHqpeQSWTMFwKQJ2zAnR-339" value="" style="endArrow=none;html=1;rounded=0;fillColor=#dae8fc;strokeColor=#6c8ebf;strokeWidth=4;startArrow=none;startFill=0;endFill=0;" parent="1" edge="1">
                    <mxGeometry width="50" height="50" relative="1" as="geometry">
                        <mxPoint x="1060" y="1519.7" as="sourcePoint"/>
                        <mxPoint x="920" y="1519.7000000000003" as="targetPoint"/>
                    </mxGeometry>
                </mxCell>
                <mxCell id="EHqpeQSWTMFwKQJ2zAnR-340" value="" style="endArrow=none;html=1;rounded=0;fillColor=#dae8fc;strokeColor=#6c8ebf;strokeWidth=4;startArrow=none;startFill=0;endFill=0;" parent="1" edge="1">
                    <mxGeometry width="50" height="50" relative="1" as="geometry">
                        <mxPoint x="1060" y="1549.7" as="sourcePoint"/>
                        <mxPoint x="920" y="1549.7000000000003" as="targetPoint"/>
                    </mxGeometry>
                </mxCell>
                <mxCell id="EHqpeQSWTMFwKQJ2zAnR-341" value="" style="endArrow=none;html=1;rounded=0;fillColor=#dae8fc;strokeColor=#6c8ebf;strokeWidth=4;startArrow=none;startFill=0;endFill=0;" parent="1" edge="1">
                    <mxGeometry width="50" height="50" relative="1" as="geometry">
                        <mxPoint x="1060" y="1579.22" as="sourcePoint"/>
                        <mxPoint x="920" y="1579.2200000000003" as="targetPoint"/>
                    </mxGeometry>
                </mxCell>
                <mxCell id="EHqpeQSWTMFwKQJ2zAnR-342" value="" style="endArrow=none;html=1;rounded=0;fillColor=#dae8fc;strokeColor=#6c8ebf;strokeWidth=4;startArrow=none;startFill=0;endFill=0;" parent="1" edge="1">
                    <mxGeometry width="50" height="50" relative="1" as="geometry">
                        <mxPoint x="1060" y="1609.46" as="sourcePoint"/>
                        <mxPoint x="920" y="1609.4600000000003" as="targetPoint"/>
                    </mxGeometry>
                </mxCell>
                <mxCell id="EHqpeQSWTMFwKQJ2zAnR-343" value="" style="endArrow=none;html=1;rounded=0;fillColor=#dae8fc;strokeColor=#6c8ebf;strokeWidth=4;startArrow=none;startFill=0;endFill=0;" parent="1" edge="1">
                    <mxGeometry width="50" height="50" relative="1" as="geometry">
                        <mxPoint x="1060" y="1639.8200000000002" as="sourcePoint"/>
                        <mxPoint x="920" y="1639.8200000000002" as="targetPoint"/>
                    </mxGeometry>
                </mxCell>
                <mxCell id="EHqpeQSWTMFwKQJ2zAnR-344" value="" style="endArrow=none;html=1;rounded=0;fillColor=#dae8fc;strokeColor=#6c8ebf;strokeWidth=4;startArrow=none;startFill=0;endFill=0;" parent="1" edge="1">
                    <mxGeometry width="50" height="50" relative="1" as="geometry">
                        <mxPoint x="1060" y="1669.3400000000001" as="sourcePoint"/>
                        <mxPoint x="920" y="1669.3400000000001" as="targetPoint"/>
                    </mxGeometry>
                </mxCell>
                <mxCell id="EHqpeQSWTMFwKQJ2zAnR-345" value="" style="endArrow=none;html=1;rounded=0;fillColor=#dae8fc;strokeColor=#6c8ebf;strokeWidth=4;startArrow=none;startFill=0;endFill=0;" parent="1" edge="1">
                    <mxGeometry width="50" height="50" relative="1" as="geometry">
                        <mxPoint x="1060" y="1699.58" as="sourcePoint"/>
                        <mxPoint x="920" y="1699.5800000000004" as="targetPoint"/>
                    </mxGeometry>
                </mxCell>
                <mxCell id="EHqpeQSWTMFwKQJ2zAnR-352" value="" style="endArrow=none;html=1;rounded=0;fillColor=#dae8fc;strokeColor=#6c8ebf;strokeWidth=4;startArrow=none;startFill=0;endFill=0;" parent="1" edge="1">
                    <mxGeometry width="50" height="50" relative="1" as="geometry">
                        <mxPoint x="1060" y="1730.0000000000002" as="sourcePoint"/>
                        <mxPoint x="920" y="1730.0000000000002" as="targetPoint"/>
                    </mxGeometry>
                </mxCell>
                <mxCell id="EHqpeQSWTMFwKQJ2zAnR-353" value="" style="endArrow=none;html=1;rounded=0;fillColor=#dae8fc;strokeColor=#6c8ebf;strokeWidth=4;startArrow=none;startFill=0;endFill=0;" parent="1" edge="1">
                    <mxGeometry width="50" height="50" relative="1" as="geometry">
                        <mxPoint x="1060" y="1760.24" as="sourcePoint"/>
                        <mxPoint x="920" y="1760.2400000000005" as="targetPoint"/>
                    </mxGeometry>
                </mxCell>
                <mxCell id="EHqpeQSWTMFwKQJ2zAnR-325" value="22P DF51A" style="rounded=0;whiteSpace=wrap;html=1;" parent="1" vertex="1">
                    <mxGeometry x="1060" y="1180" width="80" height="590" as="geometry"/>
                </mxCell>
                <mxCell id="EHqpeQSWTMFwKQJ2zAnR-260" value="GPIO" style="rounded=0;whiteSpace=wrap;html=1;" parent="1" vertex="1">
                    <mxGeometry x="840" y="920" width="80" height="860" as="geometry"/>
                </mxCell>
                <mxCell id="EHqpeQSWTMFwKQJ2zAnR-327" value="DEBUG&lt;br&gt;INTER-&lt;br&gt;FACE" style="rounded=0;whiteSpace=wrap;html=1;" parent="1" vertex="1">
                    <mxGeometry x="960" y="1210" width="60" height="320" as="geometry"/>
                </mxCell>
                <mxCell id="EHqpeQSWTMFwKQJ2zAnR-354" value="" style="endArrow=none;html=1;rounded=0;fillColor=#d5e8d4;strokeColor=#82b366;strokeWidth=4;endFill=0;targetPerimeterSpacing=0;shadow=0;" parent="1" edge="1">
                    <mxGeometry width="50" height="50" relative="1" as="geometry">
                        <mxPoint x="-79.3" y="260" as="sourcePoint"/>
                        <mxPoint x="-19.3" y="260" as="targetPoint"/>
                    </mxGeometry>
                </mxCell>
                <mxCell id="EHqpeQSWTMFwKQJ2zAnR-356" value="電源" style="text;html=1;strokeColor=none;fillColor=none;align=left;verticalAlign=middle;whiteSpace=wrap;rounded=0;fontSize=12;fontFamily=Helvetica;fontColor=default;" parent="1" vertex="1">
                    <mxGeometry x="6.661338147750939e-16" y="250" width="60" height="20" as="geometry"/>
                </mxCell>
                <mxCell id="EHqpeQSWTMFwKQJ2zAnR-266" value="FUSE" style="rounded=0;whiteSpace=wrap;html=1;opacity=70;" parent="1" vertex="1">
                    <mxGeometry x="480" y="880" width="80" height="20" as="geometry"/>
                </mxCell>
                <mxCell id="EHqpeQSWTMFwKQJ2zAnR-357" value="" style="endArrow=none;html=1;rounded=0;fillColor=#f8cecc;strokeColor=#b85450;strokeWidth=4;endFill=0;targetPerimeterSpacing=0;shadow=0;" parent="1" edge="1">
                    <mxGeometry width="50" height="50" relative="1" as="geometry">
                        <mxPoint x="-80" y="280" as="sourcePoint"/>
                        <mxPoint x="-20" y="280" as="targetPoint"/>
                    </mxGeometry>
                </mxCell>
                <mxCell id="EHqpeQSWTMFwKQJ2zAnR-358" value="アナログ" style="text;html=1;strokeColor=none;fillColor=none;align=left;verticalAlign=middle;whiteSpace=wrap;rounded=0;fontSize=12;fontFamily=Helvetica;fontColor=default;" parent="1" vertex="1">
                    <mxGeometry x="1.0500000000000014" y="270" width="60" height="20" as="geometry"/>
                </mxCell>
                <mxCell id="EHqpeQSWTMFwKQJ2zAnR-359" value="" style="endArrow=none;html=1;rounded=0;fillColor=#dae8fc;strokeColor=#6c8ebf;strokeWidth=4;endFill=0;targetPerimeterSpacing=0;shadow=0;" parent="1" edge="1">
                    <mxGeometry width="50" height="50" relative="1" as="geometry">
                        <mxPoint x="-80" y="300" as="sourcePoint"/>
                        <mxPoint x="-20" y="300" as="targetPoint"/>
                    </mxGeometry>
                </mxCell>
                <mxCell id="EHqpeQSWTMFwKQJ2zAnR-360" value="デジタル（信号）" style="text;html=1;strokeColor=none;fillColor=none;align=left;verticalAlign=middle;whiteSpace=wrap;rounded=0;fontSize=12;fontFamily=Helvetica;fontColor=default;" parent="1" vertex="1">
                    <mxGeometry y="290" width="120.7" height="20" as="geometry"/>
                </mxCell>
                <mxCell id="EHqpeQSWTMFwKQJ2zAnR-361" value="" style="endArrow=none;html=1;rounded=0;fillColor=#ffe6cc;strokeColor=#d79b00;strokeWidth=4;endFill=0;targetPerimeterSpacing=0;shadow=0;" parent="1" edge="1">
                    <mxGeometry width="50" height="50" relative="1" as="geometry">
                        <mxPoint x="-80" y="320" as="sourcePoint"/>
                        <mxPoint x="-20" y="320" as="targetPoint"/>
                    </mxGeometry>
                </mxCell>
                <mxCell id="EHqpeQSWTMFwKQJ2zAnR-362" value="デジタル（通信）" style="text;html=1;strokeColor=none;fillColor=none;align=left;verticalAlign=middle;whiteSpace=wrap;rounded=0;fontSize=12;fontFamily=Helvetica;fontColor=default;" parent="1" vertex="1">
                    <mxGeometry x="0.7" y="310" width="120.7" height="20" as="geometry"/>
                </mxCell>
            </root>
        </mxGraphModel>
    </diagram>
</mxfile>